<svg version="1.1" id="Layer_1" xmlns="http://www.w3.org/2000/svg" x="0px" y="0px" viewBox="0 0 518.28 106.97" width="200px" height="40px" fill="#fff"><g><g><path class="st0" d="M286.05,72.43h10.81c7.24,0,15.57-1.68,15.57-11.08c0-5.89-4.33-8.7-7.62-9.68c2.97-0.97,5.84-3.78,5.84-8.32
                c0-7.57-5.62-9.57-16.65-9.57h-7.95c-0.81,0-1.24,0.43-1.24,1.24v36.16C284.81,72,285.24,72.43,286.05,72.43z M291.57,49.35v-9.57
                h4.7c4.43,0,7.51,0.65,7.51,4.59c0,3.68-2.27,4.76-6.54,4.97H291.57z M291.57,66.49V55.24h6c4.54,0,8,1.35,8,5.57
                c0,4.97-4.38,5.68-9.95,5.68H291.57z"></path><path class="st0" d="M317.66,72.43h4.11c0.81,0,1.24-0.43,1.24-1.24V59.03c0-5.84,1.19-9.51,5.4-9.51c0.86,0,1.3,0.16,1.73,0.16
                c0.65,0,0.92-0.49,0.92-1.14v-3.89c0-0.97-0.65-1.3-1.68-1.3c-3.24,0-5.89,1.62-6.86,4.49c0.05-0.59,0.05-1.24,0.05-1.89V45.3
                c0-0.81-0.43-1.24-1.24-1.24h-3.73c-0.81,0-1.19,0.43-1.19,1.24v25.89C316.42,72,316.85,72.43,317.66,72.43z"></path><path class="st0" d="M341.42,72.97c4.6,0,7.84-2,9.41-4.32c0,1.03,0.05,1.95,0.16,2.65c0.05,0.76,0.54,1.14,1.3,1.14h3.57
                c0.76,0,1.19-0.22,1.19-0.81c0-0.27-0.11-0.7-0.16-1.08c-0.22-1.89-0.33-3.78-0.33-6.92v-7.95c0-9.68-4.81-12.54-11.73-12.54
                c-6.43,0-10.54,3.19-11.78,7.51c-0.11,0.38-0.27,0.97-0.27,1.35c0,0.59,0.33,0.92,1.19,0.92h3.84c0.76,0,1.14-0.38,1.35-1.14
                c0.6-2.11,2.32-3.51,5.51-3.51c3.73,0,5.41,1.78,5.51,6.49c-0.33,0.05-4.11,0.38-6.49,0.76c-6.05,0.86-12.38,3.08-12.38,9.03
                C331.31,69.89,335.53,72.97,341.42,72.97z M343.26,68.27c-2.97,0-4.92-1.3-4.92-3.89c0-3.03,3.3-4.05,10.49-4.87l1.46-0.16
                c-0.05,0.54-0.05,1.14-0.05,1.19C350.23,65.35,348.02,68.27,343.26,68.27z"></path><path class="st0" d="M362.91,39.94h4.27c0.81,0,1.24-0.43,1.24-1.24v-3.68c0-0.81-0.43-1.24-1.24-1.24h-4.27
                c-0.81,0-1.24,0.43-1.24,1.24v3.68C361.66,39.51,362.1,39.94,362.91,39.94z M363.02,72.43h4.11c0.81,0,1.24-0.43,1.24-1.24V45.3
                c0-0.81-0.43-1.24-1.24-1.24h-4.11c-0.81,0-1.24,0.43-1.24,1.24v25.89C361.77,72,362.21,72.43,363.02,72.43z"></path><path class="st0" d="M375.11,72.43h4.11c0.81,0,1.24-0.43,1.24-1.24v-14.6c0-4.43,1.95-7.95,6.43-7.95c4.43,0,5.78,3.57,5.78,9.14
                v13.41c0,0.81,0.43,1.24,1.24,1.24h4.11c0.81,0,1.24-0.43,1.24-1.24V54.81c0-7.3-3.78-11.68-10.27-11.68
                c-4.38,0-7.14,1.89-8.86,4.49c-0.05,0-0.05,0-0.05-0.05c0-0.59,0.05-1.19,0.05-1.78V45.3c0-0.81-0.43-1.24-1.24-1.24h-3.84
                c-0.81,0-1.24,0.43-1.19,1.24v25.89C373.87,72,374.3,72.43,375.11,72.43z"></path><path class="st0" d="M414.92,72.97c1.51,0,2.49-0.05,2.49-1.41v-2.54c0-0.97-0.38-1.3-1.08-1.3c-0.38,0-0.54,0.05-1.08,0.05
                c-1.95,0-2.76-0.86-2.76-3.51v-15.3h4.05c0.81,0,1.24-0.43,1.24-1.24V45.3c0-0.81-0.43-1.24-1.24-1.24h-4.05v-6.43
                c0-0.81-0.43-1.24-1.24-1.24h-4.11c-0.81,0-1.24,0.43-1.24,1.24v6.43h-3.03c-0.81,0-1.24,0.43-1.24,1.24v2.43
                c0,0.81,0.43,1.24,1.24,1.24h3.03V65.3C405.89,71.24,409.19,72.97,414.92,72.97z"></path><path class="st0" d="M422.16,72.43h4.11c0.81,0,1.24-0.43,1.24-1.24V59.03c0-5.84,1.19-9.51,5.41-9.51c0.86,0,1.3,0.16,1.73,0.16
                c0.65,0,0.92-0.49,0.92-1.14v-3.89c0-0.97-0.65-1.3-1.68-1.3c-3.24,0-5.89,1.62-6.86,4.49c0.05-0.59,0.05-1.24,0.05-1.89V45.3
                c0-0.81-0.43-1.24-1.24-1.24h-3.73c-0.81,0-1.19,0.43-1.19,1.24v25.89C420.91,72,421.34,72.43,422.16,72.43z"></path><path class="st0" d="M450.57,73.3c6.33,0,10.6-3.24,12.54-7.14c0.38-0.76,0.38-0.92,0.38-1.08c0-0.43-0.49-0.76-1.19-0.76h-4.11
                c-0.65,0-1.08,0.27-1.51,0.81c-1.24,1.68-3.19,2.7-5.95,2.7c-4.6,0-7.73-3.35-8.16-8l20.49,0.05c0.76,0,1.3-0.43,1.3-1.24v-0.54
                c0-8.27-4.81-15.03-13.89-15.03c-8.65,0-14.49,6.43-14.49,15.08C435.97,67.03,441.7,73.3,450.57,73.3z M442.78,55.13
                c0.54-4.49,3.51-6.92,7.62-6.92c4.22,0,6.92,3.03,7.35,6.92H442.78z"></path><path class="st0" d="M480.61,73.3c6.32,0,10.6-3.24,12.54-7.14c0.38-0.76,0.38-0.92,0.38-1.08c0-0.43-0.49-0.76-1.19-0.76h-4.11
                c-0.65,0-1.08,0.27-1.51,0.81c-1.24,1.68-3.19,2.7-5.95,2.7c-4.6,0-7.73-3.35-8.16-8l20.49,0.05c0.76,0,1.3-0.43,1.3-1.24v-0.54
                c0-8.27-4.81-15.03-13.89-15.03c-8.65,0-14.49,6.43-14.49,15.08C466.01,67.03,471.74,73.3,480.61,73.3z M472.83,55.13
                c0.54-4.49,3.51-6.92,7.62-6.92c4.22,0,6.92,3.03,7.35,6.92H472.83z"></path></g><g><path class="st0" d="M117.85,47.23c-0.42,2.68-2.49,4.65-6.45,4.65h-5.06l1.53-9.73h4.97C116.94,42.15,118.27,44.56,117.85,47.23
                 M112.13,60.03c7.26,0,13.42-5.3,14.55-12.47c1.14-7.24-4.52-13.55-12.53-13.57h-12.91c-0.5,0-0.92,0.36-1,0.85l-5.76,36.54
                c-0.09,0.57,0.35,1.08,0.92,1.08h6.83c0.5,0,0.92-0.36,1-0.85l1.69-10.73c0.08-0.49,0.5-0.85,1-0.85H112.13z"></path><path class="st0" d="M146.76,59.34c-0.57,3.59-3.51,6.23-7.29,6.23c-0.74,0-1.43-0.1-2.04-0.3v0c-2.8-0.9-4.39-3.59-3.94-6.5
                c0.57-3.59,3.52-6.23,7.29-6.23c0.75,0,1.43,0.1,2.04,0.3v0C145.63,53.73,147.22,56.42,146.76,59.34 M156.29,45.51h-6.49
                c-0.5,0-0.92,0.36-1,0.85l-0.21,1.35c0,0-5.04-5.5-13.95-1.79c-5.11,2.13-7.57,6.54-8.61,9.75c0,0-3.32,9.8,4.18,15.18
                c0,0,6.95,5.18,14.78-0.32l-0.14,0.86c-0.09,0.57,0.35,1.08,0.92,1.08h6.49c0.5,0,0.92-0.36,1-0.85l3.95-25.03
                C157.3,46.02,156.86,45.51,156.29,45.51"></path><path class="st0" d="M211.27,47.23c-0.42,2.68-2.49,4.65-6.45,4.65h-5.06l1.53-9.73h4.97C210.36,42.15,211.7,44.56,211.27,47.23
                 M205.56,60.03c7.26,0,13.42-5.3,14.55-12.47c1.14-7.24-4.52-13.55-12.53-13.57h-12.91c-0.5,0-0.92,0.36-1,0.85l-5.76,36.54
                c-0.09,0.57,0.35,1.08,0.92,1.08h6.83c0.5,0,0.92-0.36,1-0.85l1.69-10.73c0.08-0.49,0.5-0.85,1-0.85H205.56z"></path><path class="st0" d="M240.18,59.34c-0.57,3.59-3.51,6.23-7.29,6.23c-0.74,0-1.43-0.1-2.04-0.3v0c-2.8-0.9-4.39-3.59-3.94-6.5
                c0.57-3.59,3.52-6.23,7.29-6.23c0.75,0,1.43,0.1,2.04,0.3v0C239.05,53.73,240.64,56.42,240.18,59.34 M249.71,45.51h-6.49
                c-0.5,0-0.92,0.36-1,0.85l-0.21,1.35c0,0-5.04-5.5-13.95-1.79c-5.11,2.13-7.57,6.54-8.61,9.75c0,0-3.32,9.8,4.18,15.18
                c0,0,6.95,5.18,14.78-0.32l-0.14,0.86c-0.09,0.57,0.35,1.08,0.92,1.08h6.49c0.5,0,0.92-0.36,1-0.85l3.95-25.03
                C250.73,46.02,250.29,45.51,249.71,45.51"></path><path class="st0" d="M180.1,46.12l-7.82,13.2l-3.97-13.1c-0.13-0.43-0.52-0.72-0.97-0.72h-7.06c-0.51,0-0.88,0.5-0.72,0.99
                l7.11,22.07l-6.43,10.4c-0.31,0.5,0.05,1.16,0.65,1.16h7.6c0.44,0,0.85-0.23,1.08-0.61l19.86-32.86c0.31-0.5-0.06-1.15-0.65-1.15
                h-7.6C180.74,45.51,180.33,45.74,180.1,46.12"></path><path class="st0" d="M257.01,34.84l-5.76,36.54c-0.09,0.57,0.35,1.08,0.92,1.08h6.83c0.5,0,0.92-0.36,1-0.85l5.76-36.54
                c0.09-0.57-0.35-1.08-0.92-1.08h-6.83C257.51,33.99,257.09,34.35,257.01,34.84"></path><g><path class="st0" d="M41.87,35.35c0.13-0.84,0.85-1.45,1.7-1.45h14.98c2.72,0,5.32,0.19,7.34,1.23
                    c0.03-7.59-6.73-13.21-14.56-13.17H33.2c-0.84,0.04-1.61,0.66-1.75,1.58l-7.54,47.73c-0.19,0.98,0.56,1.8,1.47,1.8H35.9
                    L41.87,35.35z"></path><path class="st0" d="M42.41,53.02l2.26-14.32c0.12-0.76,0.55-1.52,1.54-1.52h12.64c2.4,0.02,4.94,0.24,6.81,1.22
                    c-0.01,0.54-0.06,1.41-0.14,1.97c-1.14,7.28-7.39,12.65-14.76,12.65H42.41z"></path><path class="st0" d="M68.74,40.13c-0.03,0.65-0.07,1.23-0.16,1.86c-1.29,8.24-8.46,14.32-16.8,14.32H43.5
                    c-0.92,0-1.71,0.67-1.85,1.58l-4.02,25.36c-0.15,0.92,0.57,1.76,1.5,1.76l8.86,0c0.95,0,1.69-0.7,1.85-1.55l2.19-13.75
                    c0.13-0.84,0.85-1.45,1.7-1.45H59c8.34,0,15.51-6.08,16.8-14.32C76.72,48.09,73.77,42.77,68.74,40.13"></path><path class="st0" d="M41.87,35.35c0.13-0.84,0.85-1.45,1.7-1.45h14.98c2.72,0,5.32,0.19,7.34,1.23
                    c0.03-7.59-6.73-13.21-14.56-13.17H33.2c-0.84,0.04-1.61,0.66-1.75,1.58l-7.54,47.73c-0.19,0.98,0.56,1.8,1.47,1.8H35.9
                    L41.87,35.35z"></path></g></g></g></svg>
