<svg width="64" height="64" viewBox="0 0 64 64" fill="none" xmlns="http://www.w3.org/2000/svg">
<g id="git-original logo" clip-path="url(#clip0_68_1036)">
<path id="Vector" d="M61.8685 29.1889L34.3105 1.6319C32.7245 0.0449004 30.1505 0.0449004 28.562 1.6319L22.84 7.3549L30.099 14.6139C31.7865 14.0444 33.7205 14.4264 35.065 15.7709C36.4165 17.1239 36.7955 19.0744 36.212 20.7674L43.208 27.7639C44.9005 27.1804 46.854 27.5574 48.205 28.9114C50.095 30.7999 50.095 33.8614 48.205 35.7509C47.7559 36.2003 47.2226 36.5567 46.6356 36.7999C46.0487 37.0431 45.4196 37.1683 44.7843 37.1683C44.1489 37.1683 43.5198 37.0431 42.9329 36.7999C42.3459 36.5567 41.8126 36.2003 41.3635 35.7509C40.6887 35.0757 40.2287 34.2159 40.0414 33.2799C39.8541 32.3438 39.9479 31.3733 40.311 30.4904L33.787 23.9664L33.786 41.1369C34.2593 41.37 34.6915 41.6787 35.0655 42.0509C36.9545 43.9394 36.9545 46.9999 35.0655 48.8924C33.176 50.7809 30.1135 50.7809 28.226 48.8924C26.337 47.0004 26.337 43.9399 28.226 42.0509C28.6786 41.5976 29.2169 41.239 29.8095 40.9959V23.6664C29.2164 23.424 28.6779 23.0651 28.226 22.6109C26.795 21.1809 26.4505 19.0809 27.1845 17.3229L20.028 10.1664L1.13201 29.0614C0.369665 29.824 -0.0585938 30.8581 -0.0585938 31.9364C-0.0585937 33.0147 0.369665 34.0488 1.13201 34.8114L28.6905 62.3684C30.2775 63.9554 32.8505 63.9554 34.44 62.3684L61.869 34.9394C62.6312 34.1766 63.0593 33.1424 63.0592 32.064C63.0591 30.9857 62.6308 29.9516 61.8685 29.1889Z" fill="#F34F29"/>
</g>
<defs>
<clipPath id="clip0_68_1036">
<rect width="64" height="64" fill="white"/>
</clipPath>
</defs>
</svg>
