<svg width="64" height="64" viewBox="0 0 64 64" fill="white" xmlns="http://www.w3.org/2000/svg">
<g id="Next logo" clip-path="url(#clip0_68_953)">
<path id="Vector" d="M29.4065 0.0499215C29.269 0.0624203 28.8316 0.106166 28.4378 0.137413C19.3575 0.956083 10.8521 5.85561 5.46509 13.3861C2.46539 17.5732 0.546825 22.3227 -0.178104 27.3535C-0.434329 29.1096 -0.465576 29.6283 -0.465576 32.0093C-0.465576 34.3903 -0.434329 34.909 -0.178104 36.6651C1.55923 48.6702 10.1021 58.7567 21.6885 62.4938C23.7633 63.1625 25.9506 63.6187 28.4378 63.8937C29.4065 63.9999 33.5936 63.9999 34.5623 63.8937C38.8556 63.4187 42.4927 62.3563 46.0799 60.5253C46.6298 60.244 46.7361 60.1691 46.6611 60.1066C46.6111 60.0691 44.2676 56.9256 41.4553 53.126L36.3433 46.2204L29.9377 36.7401C26.413 31.5281 23.5133 27.266 23.4883 27.266C23.4633 27.2598 23.4383 31.4719 23.4258 36.6151C23.4071 45.6205 23.4008 45.9829 23.2884 46.1954C23.1259 46.5016 23.0009 46.6266 22.7384 46.7641C22.5384 46.8641 22.3634 46.8829 21.4198 46.8829H20.3386L20.0512 46.7016C19.8637 46.5829 19.7262 46.4266 19.6325 46.2454L19.5012 45.9642L19.5137 33.4342L19.5325 20.8979L19.7262 20.6542C19.8262 20.5229 20.0387 20.3542 20.1887 20.2729C20.4449 20.148 20.5449 20.1355 21.626 20.1355C22.9009 20.1355 23.1134 20.1855 23.4446 20.5479C23.5383 20.6479 27.0067 25.8724 31.1563 32.1655C35.3059 38.4587 40.9804 47.0516 43.7676 51.2699L48.8296 58.9379L49.0858 58.7692C51.3544 57.2943 53.7541 55.1945 55.6539 53.0073C59.6973 48.364 62.3033 42.702 63.1782 36.6651C63.4344 34.909 63.4657 34.3903 63.4657 32.0093C63.4657 29.6283 63.4344 29.1096 63.1782 27.3535C61.4409 15.3484 52.898 5.26191 41.3116 1.52478C39.268 0.862342 37.0933 0.406137 34.656 0.131164C34.056 0.0686697 29.9252 -7.36155e-05 29.4065 0.0499215ZM42.4927 19.3855C42.7927 19.5355 43.0364 19.823 43.1239 20.123C43.1739 20.2854 43.1864 23.7601 43.1739 31.5906L43.1552 42.827L41.1741 39.7898L39.1868 36.7526V28.5846C39.1868 23.3039 39.2118 20.3354 39.2493 20.1917C39.3493 19.8417 39.568 19.5668 39.868 19.4043C40.1242 19.273 40.2179 19.2605 41.1991 19.2605C42.124 19.2605 42.2865 19.273 42.4927 19.3855Z" fill="white"/>
<path id="Vector_2" d="M48.517 59.0756C48.2983 59.2131 48.2296 59.3068 48.4233 59.2006C48.5608 59.1193 48.7858 58.9506 48.7483 58.9443C48.7295 58.9443 48.6233 59.0068 48.517 59.0756ZM48.0858 59.3568C47.9734 59.4443 47.9733 59.4505 48.1108 59.3818C48.1858 59.3443 48.2483 59.3006 48.2483 59.2881C48.2483 59.2381 48.2171 59.2506 48.0858 59.3568ZM47.7734 59.5443C47.6609 59.6318 47.6609 59.638 47.7984 59.5693C47.8734 59.5318 47.9359 59.488 47.9359 59.4755C47.9359 59.4255 47.9046 59.438 47.7734 59.5443ZM47.4609 59.7318C47.3484 59.8192 47.3484 59.8255 47.4859 59.7568C47.5609 59.7193 47.6234 59.6755 47.6234 59.663C47.6234 59.613 47.5921 59.6255 47.4609 59.7318ZM46.9859 59.9817C46.7485 60.1067 46.761 60.1567 46.9984 60.038C47.1047 59.9817 47.1859 59.9255 47.1859 59.913C47.1859 59.8692 47.1797 59.8755 46.9859 59.9817Z" fill="black"/>
</g>
<defs>
<clipPath id="clip0_68_953">
<rect width="64" height="64" fill="white"/>
</clipPath>
</defs>
</svg>
