<svg width="64" height="64" viewBox="0 0 64 64" fill="none" xmlns="http://www.w3.org/2000/svg">
<g id="React logo" clip-path="url(#clip0_68_948)">
<g id="XMLID_1_">
<path id="XMLID_2_" d="M52.1149 21.9875C51.4487 21.76 50.7649 21.5488 50.0637 21.3388C50.1862 20.865 50.2912 20.3925 50.3787 19.9363C51.9387 12.3613 50.9224 6.26003 47.4324 4.26128C44.1012 2.33253 38.6299 4.34878 33.1249 9.13628C32.5987 9.59253 32.0549 10.0825 31.5299 10.5913C31.1787 10.2575 30.8287 9.92503 30.4774 9.60879C24.6912 4.47128 18.905 2.31503 15.4325 4.33128C12.1012 6.26003 11.1012 11.9938 12.5037 19.165C12.6437 19.8663 12.8012 20.5675 12.9775 21.2863C12.1537 21.5138 11.3637 21.76 10.61 22.0225C3.8437 24.39 -0.487549 28.0888 -0.487549 31.9288C-0.487549 35.8913 4.1587 39.8713 11.2075 42.2913C11.7687 42.4838 12.3475 42.66 12.9437 42.835C12.7512 43.6063 12.575 44.3775 12.435 45.115C11.1025 52.1638 12.1375 57.7575 15.4687 59.6863C18.905 61.6675 24.6737 59.6338 30.2849 54.7238C30.7237 54.3375 31.1787 53.9175 31.6174 53.4963C32.1962 54.0575 32.7749 54.5838 33.3537 55.0738C38.7887 59.755 44.1725 61.6488 47.4862 59.72C50.9225 57.7388 52.0274 51.725 50.5899 44.395C50.4849 43.8338 50.3449 43.2725 50.2037 42.6763C50.6074 42.5538 51.0099 42.4313 51.3962 42.3075C58.7249 39.87 63.5124 35.9425 63.5124 31.9275C63.4949 28.0888 59.0237 24.3725 52.1149 21.9875ZM50.5199 39.7325C50.1687 39.855 49.8187 39.96 49.4499 40.0663C48.6437 37.5063 47.5387 34.7713 46.2062 31.965C47.4862 29.2125 48.5387 26.53 49.3274 23.97C49.9762 24.1625 50.6249 24.3563 51.2387 24.5663C57.1649 26.6 60.7774 29.6163 60.7774 31.9488C60.7599 34.4188 56.8674 37.6275 50.5199 39.7325ZM47.8899 44.94C48.5387 48.1838 48.6262 51.095 48.2049 53.3913C47.8187 55.4425 47.0649 56.81 46.1012 57.3713C44.0849 58.5463 39.7712 57.02 35.1249 53.0225C34.5987 52.5663 34.0549 52.0763 33.5112 51.55C35.3174 49.5863 37.1237 47.2888 38.8762 44.7463C41.9624 44.4663 44.8899 44.0275 47.5387 43.4138C47.6787 43.9225 47.8012 44.4313 47.8899 44.94ZM21.3074 57.1613C19.3437 57.8625 17.7649 57.88 16.8187 57.3363C14.8025 56.1788 13.9612 51.6725 15.1 45.6413C15.2225 44.9575 15.3799 44.2388 15.5737 43.52C18.2037 44.0988 21.0975 44.52 24.1999 44.765C25.9712 47.255 27.8299 49.5513 29.6887 51.5513C29.2849 51.9375 28.8824 52.3225 28.4612 52.6738C25.9887 54.8463 23.4987 56.39 21.3074 57.1613ZM12.085 39.715C8.9637 38.645 6.3862 37.26 4.61495 35.7525C3.01995 34.385 2.22995 33.0525 2.22995 31.9475C2.22995 29.615 5.7012 26.6525 11.505 24.6188C12.2062 24.3738 12.9425 24.145 13.7137 23.9175C14.5199 26.53 15.5724 29.2475 16.8349 32.0013C15.5549 34.7888 14.485 37.56 13.6787 40.2075C13.1187 40.0475 12.5925 39.89 12.085 39.715ZM15.17 18.6563C13.96 12.5013 14.7662 7.87253 16.7837 6.71503C18.9224 5.47003 23.6574 7.24128 28.6549 11.6775C28.9699 11.9575 29.2862 12.2563 29.6199 12.5713C27.7612 14.57 25.9199 16.85 24.1662 19.3225C21.15 19.6025 18.275 20.0413 15.6274 20.655C15.4512 19.9538 15.3112 19.2875 15.17 18.6563ZM42.7874 25.4588C42.1562 24.3713 41.5075 23.3025 40.8412 22.25C42.875 22.5125 44.8387 22.8463 46.6799 23.2675C46.1362 25.0388 45.4349 26.88 44.6287 28.7738C44.0499 27.7038 43.4362 26.5813 42.7874 25.4588ZM31.5299 14.5C32.7924 15.8675 34.0549 17.3938 35.2999 19.0413C34.0549 18.9888 32.7749 18.9538 31.4949 18.9538C30.2324 18.9538 28.9699 18.9888 27.7249 19.0413C28.9699 17.4113 30.2499 15.885 31.5299 14.5ZM20.2024 25.4938C19.5712 26.5988 18.9749 27.7025 18.3962 28.8075C17.6074 26.9138 16.9237 25.055 16.3624 23.2663C18.1862 22.8625 20.1325 22.53 22.1662 22.2663C21.4824 23.3025 20.8337 24.39 20.2024 25.4938ZM22.2187 41.8188C20.1149 41.5913 18.1512 41.275 16.3274 40.8725C16.8887 39.0488 17.5899 37.155 18.3962 35.2263C18.9749 36.3313 19.5712 37.435 20.2024 38.54C20.8512 39.6613 21.5174 40.7488 22.2187 41.8188ZM31.5999 49.5863C30.3024 48.1838 29.0049 46.64 27.7424 44.975C28.9699 45.0275 30.2149 45.045 31.4949 45.045C32.7924 45.045 34.09 45.01 35.3524 44.9575C34.1074 46.6575 32.8449 48.2013 31.5999 49.5863ZM44.6462 35.12C45.5049 37.0663 46.2237 38.96 46.8024 40.7488C44.9437 41.17 42.945 41.52 40.8412 41.7663C41.5075 40.7138 42.1562 39.6275 42.8049 38.505C43.4537 37.3825 44.0674 36.26 44.6462 35.12ZM40.4199 37.155C39.4199 38.8913 38.3862 40.5388 37.3512 42.1175C35.4574 42.2575 33.4937 42.3275 31.4949 42.3275C29.4962 42.3275 27.5674 42.2575 25.7087 42.1525C24.6212 40.575 23.5699 38.9088 22.5874 37.19C21.5874 35.4713 20.6762 33.7538 19.8524 32.035C20.6762 30.3163 21.5887 28.5813 22.5699 26.88C23.5524 25.1613 24.6037 23.5138 25.6737 21.935C27.5849 21.795 29.5312 21.725 31.4949 21.725C33.4762 21.725 35.4225 21.795 37.3337 21.9525C38.3862 23.5125 39.4199 25.1613 40.4199 26.88C41.4199 28.6163 42.3487 30.3338 43.1724 32.0175C42.3487 33.6825 41.4187 35.4188 40.4199 37.155ZM46.0662 6.62753C48.2049 7.85503 49.0474 12.8525 47.6974 19.3925C47.6099 19.8138 47.5224 20.2338 47.4174 20.6725C44.7699 20.0588 41.8762 19.6025 38.8612 19.3225C37.1074 16.815 35.2837 14.5363 33.4437 12.5713C33.9349 12.0975 34.4262 11.6425 34.9162 11.2213C39.6312 7.08378 44.0499 5.47003 46.0662 6.62753ZM31.4949 26.23C34.6512 26.23 37.2112 28.79 37.2112 31.9463C37.2112 35.1025 34.6512 37.6625 31.4949 37.6625C28.3387 37.6625 25.7787 35.1025 25.7787 31.9463C25.7787 28.79 28.3387 26.23 31.4949 26.23Z" fill="#00D8FF"/>
</g>
</g>
<defs>
<clipPath id="clip0_68_948">
<rect width="64" height="64" fill="white"/>
</clipPath>
</defs>
</svg>
