<svg width="64" height="64" viewBox="0 0 64 64" fill="none" xmlns="http://www.w3.org/2000/svg">
<g id="Socket logo">
<path id="Vector" d="M24.2208 2.03364C32.1511 -0.000104308 40.9157 1.185 47.9096 5.50146C56.718 10.769 62.4685 20.7333 62.6147 30.9903C62.9367 41.3495 57.5374 51.6212 48.8607 57.2545C39.2037 63.7509 25.8449 63.9999 15.9828 57.8252C5.93084 51.8259 0.063329 39.7254 1.57064 28.1076C2.78474 15.8314 12.2665 5.00377 24.2208 2.03364Z" fill="#010101"/>
<path id="Vector_2" d="M23.0062 7.05274C37.9894 1.05349 56.3671 12.1299 57.9179 28.1958C60.3323 42.652 48.3341 57.3425 33.6874 57.7669C19.7579 59.157 6.29658 47.3487 5.90163 33.3609C4.86276 22.0359 12.3251 10.7985 23.0062 7.05274Z" fill="white"/>
<path id="Vector_3" d="M24.5133 30.1272C31.2294 24.6401 37.7991 18.9628 44.6615 13.6367C41.062 19.1678 37.3602 24.6253 33.7606 30.1562C30.6733 30.1709 27.5861 30.1711 24.5133 30.1272ZM30.1906 33.185C33.2924 33.185 36.3798 33.185 39.4671 33.229C32.7072 38.6866 26.1668 44.4076 19.2897 49.7192C22.8892 44.1881 26.591 38.7161 30.1906 33.185Z" fill="#010101"/>
</g>
</svg>
