<svg width="64" height="64" viewBox="0 0 64 64" fill="none" xmlns="http://www.w3.org/2000/svg">
<g id="TypeScript logo" clip-path="url(#clip0_68_973)">
<path id="Vector" d="M-0.5 0H63.5V64H-0.5V0Z" fill="#017ACB"/>
<path id="Vector_2" d="M30.2299 23.7001H33.3V29.0001H25V52.5801L24.78 52.6401C24.48 52.7201 20.53 52.7201 19.68 52.6301L19 52.5701V29.0001H10.7V23.7001L13.33 23.6701C14.77 23.6501 18.47 23.6501 21.55 23.6701C24.63 23.6901 28.53 23.7001 30.2299 23.7001ZM53.66 50.0801C52.4399 51.3701 51.13 52.0901 48.95 52.6801C48 52.9401 47.84 52.9501 45.7 52.9401C43.56 52.9301 43.3899 52.9301 42.35 52.6601C39.66 51.9701 37.49 50.6201 36.01 48.7101C35.59 48.1701 34.9 47.0501 34.9 46.9101C34.9 46.8701 35 46.7801 35.1299 46.7201C35.26 46.6601 35.53 46.4901 35.75 46.3601C35.97 46.2301 36.37 45.9901 36.64 45.8501C36.91 45.7101 37.69 45.2501 38.37 44.8401C39.05 44.4301 39.67 44.1001 39.74 44.1001C39.81 44.1001 39.94 44.2401 40.04 44.4101C40.64 45.4201 42.04 46.7101 43.0299 47.1501C43.6399 47.4101 44.99 47.7001 45.6399 47.7001C46.24 47.7001 47.34 47.4401 47.93 47.1701C48.56 46.8801 48.88 46.5901 49.26 46.0101C49.52 45.6001 49.5499 45.4901 49.54 44.7101C49.54 43.9901 49.5 43.7901 49.3 43.4601C48.74 42.5401 47.9799 42.0601 44.9 40.7001C41.72 39.2901 40.29 38.4501 39.1299 37.3201C38.27 36.4801 38.1 36.2501 37.56 35.2001C36.86 33.8501 36.77 33.4101 36.76 31.4001C36.75 29.9901 36.78 29.5301 36.93 29.0501C37.1399 28.3301 37.82 26.9401 38.1299 26.5901C38.77 25.8401 39 25.6101 39.45 25.2401C40.81 24.1201 42.93 23.3801 44.96 23.3101C45.19 23.3101 45.95 23.3501 46.66 23.4001C48.7 23.5701 50.09 24.0701 51.43 25.1401C52.4399 25.9401 53.97 27.8201 53.82 28.0701C53.72 28.2201 49.73 30.8801 49.47 30.9601C49.31 31.0101 49.2 30.9501 48.9799 30.6901C47.6199 29.0601 47.07 28.7101 45.75 28.6301C44.81 28.5701 44.31 28.6801 43.68 29.1001C43.02 29.5401 42.7 30.2101 42.7 31.1401C42.71 32.5001 43.2299 33.1401 45.15 34.0901C46.3899 34.7001 47.45 35.2001 47.5299 35.2001C47.65 35.2001 50.22 36.4801 50.89 36.8801C54.01 38.7101 55.2799 40.5901 55.61 43.8301C55.8499 46.2701 55.16 48.5001 53.66 50.0801Z" fill="white"/>
</g>
<defs>
<clipPath id="clip0_68_973">
<rect width="64" height="64" fill="white"/>
</clipPath>
</defs>
</svg>
