<svg width="70" height="64" viewBox="0 0 70 64" fill="none" xmlns="http://www.w3.org/2000/svg">
<g id="web3js logo" clip-path="url(#clip0_68_1020)">
<g id="Group">
<path id="Vector" d="M23.1314 11.6758C23.1314 11.6758 20.6014 13.1364 20.6014 16.0531C20.6014 18.9743 20.6014 30.632 20.6014 30.632C20.6014 30.632 20.6014 33.5532 18.0715 32.0926C15.5416 30.632 15.5416 27.7153 15.5416 27.7153C15.5416 27.7153 15.5416 16.0531 15.5416 13.1364C15.5416 12.9544 15.5507 12.777 15.5689 12.6041C15.8465 10.0377 18.067 8.75459 18.067 8.75459L13.0117 5.83791C13.0117 5.83791 13.0072 5.83791 13.0026 5.84246C12.8525 5.92891 10.4818 7.38953 10.4818 10.2152C10.4818 13.1364 10.4818 24.794 10.4818 24.794C10.4818 24.794 10.4818 27.7153 7.95188 26.2547C5.42197 24.794 5.42197 21.8774 5.42197 21.8774C5.42197 21.8774 5.42197 10.2152 5.42197 7.29852C5.42197 4.38184 7.95188 2.92123 7.95188 2.92123L2.89661 0C2.89661 0 0.366699 1.46061 0.366699 4.37729C0.366699 7.29852 0.366699 18.9561 0.366699 18.9561C0.366699 18.9561 0.366699 27.7153 7.95188 32.0926C10.277 33.4349 11.8878 33.5395 13.0072 33.0436C14.1265 34.8318 15.7373 36.5882 18.0624 37.9305C25.6476 42.3078 25.6476 33.5532 25.6476 33.5532C25.6476 33.5532 25.6476 21.891 25.6476 18.9743C25.6476 16.0531 28.1775 14.597 28.1775 14.597C27.3999 13.6188 26.7084 12.9545 26.1031 12.6041C25.587 12.3053 24.5964 11.9959 23.1314 11.6758Z" fill="#808285"/>
<path id="Vector_2" d="M50.9376 36.4836C50.9376 27.8382 58.5228 32.1063 58.5228 32.1063L68.6333 37.9442V43.7821L58.5228 37.9442C58.5228 37.9442 58.4909 37.9258 58.4343 37.8972L58.401 37.8807C57.8961 37.6339 55.9929 36.8717 55.9929 39.4093C55.9929 42.326 58.5228 43.7866 58.5228 43.7866L63.5781 46.7033C63.5781 46.7033 68.6333 49.6245 68.6333 58.3791C68.6333 67.1337 61.0481 62.7564 61.0481 62.7564L50.9376 56.9185V51.0806L61.0527 56.9185C61.0527 56.9185 63.5826 58.3791 63.5826 55.4579C63.5826 52.5412 61.0527 51.0806 61.0527 51.0806L58.5228 49.62C58.3718 49.5298 50.9376 45.0425 50.9376 36.4836ZM43.3524 23.3517C44.8642 23.5254 45.8891 23.7677 46.427 24.0786C47.0125 24.4169 47.6727 25.1483 48.4077 26.2729C48.4077 26.2729 45.8778 27.7335 45.8778 30.6502L45.8776 45.2521C45.8709 45.7425 45.6502 53.8523 38.2926 49.6063C30.935 45.3604 30.7142 36.9915 30.7076 36.4932L30.7074 36.4699L35.7627 39.3911L35.7628 39.4009C35.7655 39.5861 35.848 42.3571 38.2926 43.7684C40.7451 45.1843 40.8201 42.4826 40.8224 42.3158L40.8225 27.729C40.8225 24.8123 43.3524 23.3517 43.3524 23.3517ZM30.7165 24.8442L35.7718 27.7608V33.5987L30.7165 30.6821V24.8442Z" fill="#BCBEC0"/>
<path id="Vector_3" d="M58.5228 11.6758C56.1931 10.3289 54.1046 9.67372 52.3254 9.4098C51.8613 8.39511 50.7238 7.20296 48.4123 5.8834C40.8271 1.55161 33.2464 5.8379 33.2464 5.8379L23.1313 11.6758L28.1866 14.5925L38.2972 8.75457C38.2972 8.75457 40.8271 7.29396 43.3524 8.75457C45.8824 10.2152 43.3524 11.6758 43.3524 11.6758L33.2419 17.5137L38.2972 20.4304L48.4168 14.5879C48.567 14.5015 51.015 13.1774 53.463 14.5925C55.9929 16.0531 53.463 17.5092 53.463 17.5092L43.3524 23.3471L48.4077 26.2683L61.0482 18.9698C61.0482 18.9698 66.1034 16.0531 58.5228 11.6758Z" fill="#F16822"/>
</g>
</g>
<defs>
<clipPath id="clip0_68_1020">
<rect width="68.2667" height="64" fill="white" transform="translate(0.866699)"/>
</clipPath>
</defs>
</svg>
