<svg width="64" height="64" viewBox="0 0 64 64" fill="none" xmlns="http://www.w3.org/2000/svg">
<g id="Electronjs logo" clip-path="url(#clip0_68_958)">
<g id="Group">
<path id="Vector" d="M31.5 64C49.1731 64 63.5 49.6731 63.5 32C63.5 14.3269 49.1731 0 31.5 0C13.8269 0 -0.5 14.3269 -0.5 32C-0.5 49.6731 13.8269 64 31.5 64Z" fill="#2F3241"/>
<g id="Group_2">
<path id="Vector_2" d="M24.6255 17.9225C18.1242 16.7385 12.9837 17.9777 10.935 21.5262C9.40621 24.1742 9.84321 27.685 11.995 31.4377C12.0375 31.5157 12.0951 31.5844 12.1645 31.6397C12.2338 31.6951 12.3136 31.7361 12.399 31.7602C12.4844 31.7844 12.5738 31.7912 12.6619 31.7804C12.75 31.7695 12.8351 31.7412 12.9121 31.697C12.9891 31.6528 13.0565 31.5937 13.1104 31.5232C13.1642 31.4526 13.2035 31.372 13.2258 31.2861C13.248 31.2002 13.253 31.1106 13.2402 31.0228C13.2274 30.9349 13.1973 30.8505 13.1515 30.7745C11.2135 27.394 10.8362 24.3642 12.0897 22.193C13.7917 19.2452 18.3767 18.1397 24.3865 19.2342C24.5592 19.263 24.7362 19.2227 24.8795 19.122C25.0227 19.0213 25.1205 18.8683 25.1519 18.6961C25.1833 18.5238 25.1457 18.3462 25.0472 18.2014C24.9487 18.0567 24.7972 17.9565 24.6255 17.9225ZM15.3757 35.9992C18.0045 38.888 21.4197 41.5977 25.3147 43.8462C34.7455 49.2912 44.7855 50.7465 49.7335 47.3727C49.8075 47.3241 49.8711 47.2613 49.9205 47.1878C49.97 47.1144 50.0043 47.0318 50.0215 46.945C50.0387 46.8581 50.0384 46.7687 50.0207 46.682C50.003 46.5952 49.9682 46.5129 49.9183 46.4397C49.8684 46.3666 49.8045 46.3041 49.7302 46.256C49.6559 46.2078 49.5727 46.1749 49.4856 46.1592C49.3984 46.1435 49.3091 46.1454 49.2226 46.1646C49.1362 46.1838 49.0545 46.2201 48.9822 46.2712C44.5537 49.2907 35.0167 47.9082 25.9815 42.6917C22.203 40.5102 18.8957 37.8862 16.362 35.1017C16.3031 35.0366 16.232 34.9837 16.1527 34.9461C16.0734 34.9085 15.9874 34.8869 15.8998 34.8826C15.8121 34.8783 15.7244 34.8914 15.6418 34.921C15.5592 34.9507 15.4833 34.9964 15.4183 35.0554C15.3534 35.1145 15.3008 35.1858 15.2635 35.2653C15.2262 35.3448 15.205 35.4308 15.201 35.5185C15.1971 35.6062 15.2105 35.6938 15.2404 35.7763C15.2704 35.8588 15.3164 35.9345 15.3757 35.9992Z" fill="#74B1BE"/>
<path id="Vector_3" d="M48.155 35.1882C52.412 30.1592 53.8983 25.1012 51.8538 21.5602C50.3495 18.9544 47.1693 17.5787 42.9425 17.5237C42.7674 17.5239 42.5993 17.5931 42.4748 17.7163C42.3502 17.8394 42.2791 18.0067 42.2768 18.1818C42.2745 18.357 42.3413 18.526 42.4626 18.6523C42.584 18.7786 42.7502 18.8521 42.9253 18.8569C46.7265 18.9064 49.4665 20.0917 50.6993 22.2269C52.3973 25.1682 51.0718 29.6787 47.1373 34.3267C47.0795 34.3934 47.0356 34.4708 47.008 34.5546C46.9804 34.6383 46.9697 34.7267 46.9765 34.8147C46.9834 34.9026 47.0075 34.9883 47.0477 35.0668C47.0879 35.1453 47.1432 35.2151 47.2105 35.2721C47.2778 35.329 47.3558 35.3721 47.4399 35.3987C47.5239 35.4254 47.6124 35.4351 47.7003 35.4273C47.7881 35.4195 47.8736 35.3943 47.9516 35.3533C48.0297 35.3123 48.0988 35.2561 48.155 35.1882ZM37.2148 18.1444C33.3658 18.9692 29.2688 20.5817 25.3343 22.8532C15.5988 28.4739 9.24802 36.7622 10.13 42.7719C10.1418 42.8594 10.1708 42.9436 10.2153 43.0198C10.2599 43.096 10.3191 43.1625 10.3896 43.2156C10.4601 43.2687 10.5404 43.3073 10.6259 43.3291C10.7114 43.3509 10.8004 43.3556 10.8877 43.3427C10.975 43.3299 11.0589 43.2999 11.1345 43.2544C11.2101 43.2089 11.276 43.1489 11.3282 43.0778C11.3804 43.0067 11.418 42.9259 11.4388 42.8401C11.4596 42.7544 11.4632 42.6653 11.4493 42.5782C10.666 37.2422 16.686 29.3859 26.001 24.0079C29.8178 21.8042 33.7848 20.2429 37.494 19.4482C37.5808 19.4311 37.6634 19.3969 37.7368 19.3475C37.8103 19.2982 37.8732 19.2347 37.9218 19.1609C37.9705 19.087 38.004 19.0041 38.0204 18.9172C38.0367 18.8302 38.0356 18.7409 38.017 18.6544C37.9985 18.5679 37.9629 18.4859 37.9124 18.4133C37.8619 18.3406 37.7974 18.2788 37.7227 18.2313C37.6481 18.1839 37.5647 18.1517 37.4775 18.1368C37.3903 18.1219 37.301 18.1245 37.2148 18.1444Z" fill="#74B1BE"/>
<path id="Vector_4" d="M21.4425 46.9382C23.6685 53.1532 27.3097 56.98 31.4042 56.98C34.3905 56.98 37.1532 54.9442 39.3077 51.3605C39.3544 51.2854 39.3856 51.2018 39.3996 51.1145C39.4137 51.0273 39.4102 50.9381 39.3895 50.8522C39.3687 50.7663 39.3311 50.6854 39.2788 50.6141C39.2265 50.5429 39.1606 50.4827 39.0849 50.4372C39.0091 50.3917 38.9251 50.3617 38.8376 50.3489C38.7502 50.3361 38.6611 50.3409 38.5755 50.3629C38.4899 50.3848 38.4095 50.4236 38.339 50.4769C38.2686 50.5303 38.2094 50.5971 38.165 50.6735C36.2287 53.8942 33.8505 55.6465 31.4042 55.6465C28.003 55.6465 24.7552 52.2335 22.698 46.489C22.6698 46.4048 22.6251 46.3272 22.5666 46.2606C22.508 46.1939 22.4367 46.1397 22.3569 46.1009C22.2771 46.0622 22.1904 46.0398 22.1018 46.035C22.0132 46.0302 21.9246 46.0431 21.8411 46.073C21.7576 46.1029 21.6808 46.1491 21.6154 46.209C21.55 46.269 21.4972 46.3413 21.4601 46.4219C21.423 46.5025 21.4024 46.5896 21.3994 46.6783C21.3964 46.767 21.4111 46.8553 21.4427 46.9382H21.4425ZM41.773 45.7225C42.9255 42.0405 43.5442 37.793 43.5442 33.3667C43.5442 22.322 39.6785 12.801 34.1725 10.3562C34.0116 10.2888 33.8308 10.2872 33.6687 10.3516C33.5067 10.4159 33.3763 10.5412 33.3055 10.7006C33.2347 10.86 33.2292 11.0408 33.2902 11.2042C33.3511 11.3676 33.4736 11.5006 33.6315 11.5747C38.5422 13.7555 42.2107 22.7912 42.2107 33.3667C42.2107 37.661 41.6115 41.7742 40.5007 45.3242C40.4731 45.4081 40.4625 45.4967 40.4694 45.5848C40.4764 45.6729 40.5008 45.7587 40.5412 45.8373C40.5816 45.9159 40.6372 45.9857 40.7048 46.0426C40.7724 46.0995 40.8507 46.1423 40.935 46.1687C41.0193 46.1951 41.108 46.2045 41.196 46.1963C41.284 46.1881 41.3695 46.1625 41.4475 46.121C41.5255 46.0794 41.5944 46.0228 41.6503 45.9544C41.7063 45.886 41.748 45.8072 41.7732 45.7225H41.773ZM54.329 45.0695C54.329 43.3072 52.9005 41.8787 51.1382 41.8787C49.376 41.8787 47.9475 43.3072 47.9475 45.0695C47.9475 46.8317 49.376 48.2602 51.1382 48.2602C52.9005 48.2602 54.329 46.8317 54.329 45.0695ZM52.9957 45.0695C52.9957 45.3134 52.9477 45.5549 52.8543 45.7803C52.761 46.0057 52.6242 46.2104 52.4517 46.3829C52.2792 46.5554 52.0744 46.6922 51.8491 46.7856C51.6237 46.8789 51.3822 46.927 51.1382 46.927C50.8943 46.927 50.6527 46.8789 50.4274 46.7856C50.202 46.6922 49.9973 46.5554 49.8248 46.3829C49.6523 46.2104 49.5155 46.0057 49.4221 45.7803C49.3288 45.5549 49.2807 45.3134 49.2807 45.0695C49.2807 44.5768 49.4764 44.1044 49.8248 43.756C50.1731 43.4077 50.6456 43.212 51.1382 43.212C51.6309 43.212 52.1033 43.4077 52.4517 43.756C52.8 44.1044 52.9957 44.5768 52.9957 45.0695ZM11.6242 48.2602C13.3867 48.2602 14.8152 46.8317 14.8152 45.0695C14.8152 43.3072 13.3865 41.8787 11.6242 41.8787C9.86222 41.8787 8.43347 43.3072 8.43347 45.0695C8.43347 46.8317 9.86222 48.2602 11.6242 48.2602ZM11.6242 46.927C11.1316 46.927 10.6591 46.7313 10.3108 46.3829C9.96242 46.0346 9.76672 45.5621 9.76672 45.0695C9.76672 44.5768 9.96242 44.1044 10.3108 43.756C10.6591 43.4077 11.1316 43.212 11.6242 43.212C12.1169 43.212 12.5893 43.4077 12.9377 43.756C13.286 44.1044 13.4817 44.5768 13.4817 45.0695C13.4817 45.5621 13.286 46.0346 12.9377 46.3829C12.5893 46.7313 12.1169 46.927 11.6242 46.927Z" fill="#74B1BE"/>
<path id="Vector_5" d="M31.4043 13.611C33.1665 13.611 34.595 12.1825 34.595 10.4202C34.595 8.65799 33.1665 7.22949 31.4043 7.22949C29.642 7.22949 28.2135 8.65799 28.2135 10.4202C28.2135 12.1825 29.642 13.611 31.4043 13.611ZM31.4043 12.2777C30.9116 12.2777 30.4392 12.082 30.0908 11.7337C29.7425 11.3853 29.5468 10.9129 29.5468 10.4202C29.5468 9.9276 29.7425 9.45514 30.0908 9.10679C30.4392 8.75844 30.9116 8.56274 31.4043 8.56274C31.8969 8.56274 32.3694 8.75844 32.7177 9.10679C33.0661 9.45514 33.2618 9.9276 33.2618 10.4202C33.2618 10.9129 33.0661 11.3853 32.7177 11.7337C32.3694 12.082 31.8969 12.2777 31.4043 12.2777ZM31.8915 35.6232C30.6453 35.8925 29.4175 35.1005 29.1478 33.8542C29.0186 33.2558 29.1324 32.6305 29.4641 32.116C29.7958 31.6014 30.3184 31.2396 30.9168 31.1102C32.163 30.841 33.3908 31.633 33.6608 32.8792C33.93 34.1255 33.138 35.3535 31.8915 35.6232Z" fill="#74B1BE"/>
</g>
</g>
</g>
<defs>
<clipPath id="clip0_68_958">
<rect width="64" height="64" fill="white"/>
</clipPath>
</defs>
</svg>
