<svg width="64" height="64" viewBox="0 0 64 64" fill="none" xmlns="http://www.w3.org/2000/svg">
<g id="Javascript logo" clip-path="url(#clip0_68_968)">
<path id="Vector" d="M-0.5 0H63.5V64H-0.5V0Z" fill="#F0DB4F"/>
<path id="Vector_2" d="M58.262 48.7361C57.7935 45.816 55.8893 43.3643 50.2498 41.0768C48.2909 40.1764 46.1068 39.5316 45.4559 38.0472C45.2247 37.1833 45.1943 36.6966 45.3403 36.1734C45.7601 34.4761 47.7859 33.9468 49.392 34.4335C50.4262 34.7802 51.4057 35.5773 51.9958 36.8487C54.7578 35.0602 54.7517 35.0723 56.6802 33.8434C55.9745 32.7484 55.5973 32.2434 55.135 31.775C53.4741 29.9195 51.211 28.9643 47.5912 29.0373C46.9646 29.1164 46.332 29.2015 45.7053 29.2807C43.8985 29.737 42.1768 30.686 41.1669 31.9575C38.1373 35.3948 39.0011 41.4114 42.6878 43.8875C46.3198 46.613 51.6551 47.2335 52.3365 49.7826C52.9996 52.9035 50.043 53.9133 47.1046 53.5545C44.9388 53.1043 43.7343 52.0031 42.4323 50.0016C40.0354 51.3887 40.0354 51.3887 37.5715 52.8062C38.1556 54.0837 38.77 54.6617 39.7495 55.7689C44.3852 60.4716 55.9867 60.2404 58.0674 53.1225C58.1525 52.8791 58.7122 51.2487 58.262 48.7361ZM34.2924 29.4145H28.3061C28.3061 34.5856 28.2818 39.7202 28.2818 44.8913C28.2818 48.1825 28.4521 51.2 27.9168 52.1247C27.0407 53.9437 24.7715 53.7186 23.7373 53.3657C22.6848 52.8486 22.1495 52.1125 21.529 51.0723C21.3586 50.7742 21.2309 50.543 21.1882 50.5247C19.5639 51.5164 17.9456 52.514 16.3213 53.5057C17.1305 55.1666 18.3228 56.6084 19.8498 57.5452C22.1312 58.914 25.1973 59.3338 28.4035 58.5977C30.4902 57.9893 32.2909 56.7301 33.2338 54.8137C34.5966 52.3012 34.3046 49.2593 34.2924 45.8951C34.3228 40.4076 34.2924 34.9202 34.2924 29.4145Z" fill="#323330"/>
</g>
<defs>
<clipPath id="clip0_68_968">
<rect width="64" height="64" fill="white"/>
</clipPath>
</defs>
</svg>
