<svg width="64" height="64" viewBox="0 0 64 64" fill="none" xmlns="http://www.w3.org/2000/svg">
<g id="MobX logo" clip-path="url(#clip0_68_995)">
<path id="Vector" d="M63.5001 59.0984V4.90166C63.5001 2.67816 62.0193 0.80166 59.9908 0.20166L57.6871 1.58016L32.1208 28.8394L31.3193 31.3447L30.8511 33.7497L38.8236 63.5447L40.0568 63.9997H58.5986C61.3056 63.9997 63.5001 61.8054 63.5001 59.0984Z" fill="#EA6618"/>
<path id="Vector_2" d="M-0.5 4.9015V59.0983C-0.5 60.7745 0.34175 62.2533 1.625 63.137L3.19675 62.3845L30.2582 33.411L31.3193 31.3447L31.359 29.3472L23.994 1.3265L22.8783 0H4.4015C1.6945 0 -0.5 2.1945 -0.5 4.9015Z" fill="#D65813"/>
<path id="Vector_3" d="M31.3193 31.345L59.9908 0.201506C59.5387 0.0675991 59.0697 -0.000351613 58.5983 -0.000244013H22.8788L31.3195 31.3448L31.3193 31.345Z" fill="#E05E11"/>
<path id="Vector_4" d="M4.40151 64H40.057L31.3193 31.3447L1.62476 63.1372C2.44111 63.7004 3.40974 64.0014 4.40151 64Z" fill="#DE5C16"/>
<path id="Vector_5" d="M23.2295 24.2574H26.7857C28.2027 29.6039 29.8155 34.2954 31.6147 38.5287C33.6527 33.7662 35.1465 29.0712 36.411 24.2572H39.7715C38.2665 30.2387 35.8045 36.2672 32.9885 42.4897H30.016C27.311 36.5932 25.0085 30.5307 23.2295 24.2574ZM11.4995 14.9937H19.407V48.9029H11.4645V46.2889H16.3325V17.5379H11.4995V14.9937ZM51.5417 17.5379H46.7087V46.2889H51.5762V48.9029H43.634V14.9937H51.5415V17.5379H51.5417Z" fill="white"/>
</g>
<defs>
<clipPath id="clip0_68_995">
<rect width="64" height="64" fill="white"/>
</clipPath>
</defs>
</svg>
