<svg width="64" height="64" viewBox="0 0 64 64" fill="none" xmlns="http://www.w3.org/2000/svg">
<g id="react-spring logo" clip-path="url(#clip0_68_1013)">
<path id="Vector" d="M31.5 64C49.1731 64 63.5 49.6731 63.5 32C63.5 14.3269 49.1731 0 31.5 0C13.8269 0 -0.5 14.3269 -0.5 32C-0.5 49.6731 13.8269 64 31.5 64Z" fill="white"/>
<path id="Vector_2" d="M17.9952 20.529C17.8417 20.562 17.7175 20.6427 17.611 20.7877C17.5008 20.9452 17.462 21.2044 17.5183 21.3752C17.5662 21.525 17.8264 21.828 18.1119 22.0344C17.738 22.527 17.3733 23.0266 17.0182 23.5329C15.1005 26.3109 13.9762 28.8524 13.8335 30.6847C13.7563 31.6752 13.9487 32.3677 14.4045 32.9062C14.7419 33.3032 15.1368 33.5286 15.7727 33.6641C16.2944 33.775 17.0931 33.7698 17.899 33.6465C17.3924 34.3733 16.6688 35.4876 16.2959 36.122C15.6803 37.1756 15.0497 38.5218 14.8127 39.2922C14.3952 40.6351 14.3419 41.7383 14.6199 42.7905C14.7894 43.4369 15.0632 43.9561 15.4354 44.3545C15.814 44.7603 16.2956 45.0435 16.8847 45.2033C17.8494 45.4643 19.2657 45.3901 21.0542 44.9689C21.4311 44.8812 22.0097 44.7197 22.4409 44.5917C22.0565 45.9374 22.0993 47.1661 22.5311 48.0477C22.6706 48.3312 23.0608 48.809 23.2942 48.9851C24.6892 50.0265 27.622 49.9874 31.5571 48.7532C31.8724 48.655 32.762 48.3475 33.205 48.1862C33.5081 48.5909 33.7903 48.7502 34.4448 48.8288C34.8705 48.8752 35.2202 48.8068 35.5512 48.6162C35.7023 48.5285 35.7917 48.4424 35.8423 48.362C35.9247 48.231 35.9399 48.0963 35.8828 47.935C35.828 47.7839 35.7491 47.694 35.6073 47.6304C35.526 47.5938 35.4067 47.5676 35.2131 47.553C35.0621 47.543 35.0088 47.537 34.9284 47.4799L34.9534 47.4589C35.6422 47.1676 37.1298 46.4245 38.0477 45.9128C41.405 44.04 44.9922 41.4005 47.3813 39.0437C49.5461 36.9106 51.6439 34.2484 52.0772 33.1081C52.2087 32.7662 52.2447 32.4108 52.1891 32.1343C52.1423 31.9182 52.1165 31.8596 51.9079 31.6109C51.6875 31.3482 51.6414 31.3236 51.438 31.243C50.7613 30.9767 49.7154 31.2703 47.6547 32.5288C45.0188 34.1382 41.1067 37.1265 38.3505 39.6403C35.6356 42.1137 33.8519 44.2754 33.1905 45.8615C33.1109 46.0526 33.1131 46.142 33.0718 46.1643C33.0292 46.1878 32.6626 46.3308 32.2593 46.4894C30.0371 47.3519 28.1006 47.8468 26.6543 47.9102C26.2553 47.9285 25.6184 47.8851 25.3036 47.8175C25.0399 47.7611 24.7155 47.6332 24.5928 47.5167C24.44 47.3745 24.3799 47.1358 24.3697 46.8352C24.3564 46.4563 24.4328 45.9832 24.5926 45.433C24.702 45.0613 25.0864 44.1006 25.278 43.7274L25.7278 43.485C28.1522 42.5681 30.8956 41.2404 33.465 39.7417C36.9357 37.7166 40.9302 34.9091 44.5071 31.9733C46.6384 30.2239 47.7842 29.1207 48.8704 27.7782C49.7187 26.7304 50.4057 25.5502 50.5622 24.8923C50.6754 24.425 50.6604 24.0062 50.5364 23.6533C50.4062 23.2814 50.1557 22.9766 49.7886 22.7612C48.8324 22.201 47.0997 22.4219 44.758 23.4778C42.5436 24.4763 39.7751 26.1976 36.6477 28.5566C34.7789 29.9627 32.1627 32.1388 30.7802 33.4342C27.2516 36.7436 24.8345 39.6218 23.4941 42.0997L23.4032 42.2688C22.2173 42.7151 20.386 43.2325 19.4686 43.3885C18.7042 43.5165 17.9661 43.5508 17.5326 43.4654C17.2644 43.4131 17.06 43.3277 16.9103 43.1737C16.7545 43.0136 16.6598 42.787 16.5907 42.4847C16.4852 42.0113 16.5165 41.2329 16.6578 40.6566C17.0941 38.8802 18.5327 36.3291 20.7286 33.4026L21.2052 32.7695L21.6971 32.5791C24.9509 31.3299 28.991 29.0821 32.5736 26.5242C34.5597 25.1054 36.6948 23.3445 38.1457 21.926C39.2985 20.7992 40.2199 19.7608 40.9319 18.7898C41.559 17.9308 41.9535 17.2052 42.1311 16.5891C42.3289 15.9021 42.2671 15.3386 41.9828 14.8623C41.7657 14.4981 41.4358 14.2534 41.0176 14.1392C40.6354 14.035 40.1736 14.0423 39.6561 14.1808C38.1544 14.5875 35.9162 15.9309 32.7169 18.3696C31.9215 18.9792 29.2978 21.1806 28.5144 21.8959C25.246 24.8933 22.3503 27.9558 19.8976 31.0053L19.434 31.5826L19.1741 31.66C18.419 31.8826 17.5519 32.0469 16.9381 32.084C16.5789 32.1055 16.1036 32.0554 15.8964 31.9613C15.7872 31.9129 15.7697 31.8999 15.7061 31.813C15.5939 31.6585 15.5676 31.5099 15.5583 31.2142C15.5122 29.9206 16.4081 27.7329 17.895 25.413C18.4873 24.4948 19.1265 23.6077 19.81 22.7552L20.1461 22.3345C21.212 22.0039 22.2699 21.3327 23.8627 19.996C25.6925 18.4567 27.4812 16.5195 27.9781 15.8523C28.5584 15.0729 28.7806 14.2983 28.6837 13.993C28.6197 13.8033 28.4962 13.6394 28.3315 13.5256C28.1647 13.4107 27.9659 13.3548 27.7755 13.3749C27.4945 13.4034 26.8506 13.7473 25.9948 14.3694C25.3895 14.8077 23.7087 16.1947 22.9729 16.8624C21.631 18.0776 20.7454 18.9677 19.6389 20.2094L19.2895 20.6001C19.0159 20.6575 18.7322 20.6457 18.4643 20.5658C18.2692 20.5094 18.1184 20.5024 17.9952 20.529ZM31.3602 22.1812C32.2911 21.3732 32.6836 21.0476 33.9621 20.0173C35.5062 18.7748 37.2052 17.5959 38.4505 16.9017C39.0608 16.5603 39.6323 16.2906 40.0774 16.2014C39.9747 16.4168 39.8169 16.6873 39.6466 16.9448C38.8171 18.188 37.5551 19.602 35.6619 21.4113C35.0909 21.9595 32.2388 24.3483 31.5275 24.8803C29.1292 26.6672 26.9172 28.0913 24.6434 29.3072C24.3536 29.4615 24.0073 29.6403 23.6734 29.8089C26.0314 27.1416 28.6952 24.4981 31.3602 22.1812ZM43.2721 26.6775C45.6749 25.2257 47.7266 24.3764 48.6996 24.3303C48.6773 24.4124 48.643 24.5131 48.6045 24.6025C48.225 25.5001 47.1581 26.8075 45.6366 28.2644C45.01 28.8629 42.5631 30.9039 41.4233 31.7802C35.9635 35.9644 31.4824 38.783 27.1251 40.7586C27.8887 39.7257 28.9614 38.4552 29.976 37.3905C31.8822 35.3894 34.2199 33.2711 36.5563 31.4293C39.1547 29.3789 41.2317 27.9112 43.2721 26.6775ZM44.7222 37.1856C46.5062 35.7899 48.1008 34.6719 49.2779 33.9841C49.1682 34.1322 49.0563 34.2787 48.9423 34.4234C47.0639 36.8045 44.8181 38.9395 42.0146 41.0023C40.3692 42.2119 38.6646 43.3164 37.0076 44.2428C37.9618 43.1451 39.1702 41.9437 40.8155 40.4523C41.2437 40.0623 44.1545 37.6279 44.7222 37.1856Z" fill="#1B1A22"/>
<path id="Vector_3" d="M31.5268 42.4733C37.2741 42.4733 41.9333 37.8052 41.9333 32.0468C41.9333 26.2885 37.2741 21.6204 31.5268 21.6204C25.7795 21.6204 21.1204 26.2885 21.1204 32.0468C21.1204 37.8052 25.7795 42.4733 31.5268 42.4733Z" fill="url(#paint0_radial_68_1013)"/>
<path id="Vector_4" d="M51.4381 31.2532C51.6415 31.3338 51.6876 31.3583 51.9082 31.6213C52.1166 31.8698 52.1424 31.9284 52.1892 32.1445C52.2448 32.421 52.2088 32.7764 52.0775 33.1182C51.6442 34.2585 49.5462 36.9208 47.3813 39.0539C44.9923 41.4107 41.4051 44.0501 38.0478 45.923C37.1299 46.4344 35.6425 47.1778 34.9535 47.469L34.9285 47.4901L33.2054 48.1963C33.0318 48.2595 32.7901 48.3449 32.5412 48.4315L32.3746 48.4891C32.0425 48.6038 31.7217 48.712 31.5571 48.7634C27.6218 49.9976 24.6891 50.0364 23.2943 48.9953L24.5929 47.5269C24.7156 47.6434 25.0399 47.7713 25.3037 47.8274C25.6185 47.8956 26.2554 47.9386 26.6543 47.9203C28.1007 47.857 30.0372 47.3621 32.2594 46.4995C32.6626 46.341 33.0293 46.198 33.0719 46.1745L37.0077 44.2528C38.6647 43.3266 40.3692 42.2221 42.0144 41.0124C44.8182 38.9497 47.064 36.8146 48.9424 34.4336C49.0564 34.2888 49.1683 34.1424 49.278 33.9943L51.4381 31.2532ZM49.7887 22.7714C50.1558 22.9868 50.406 23.2916 50.5365 23.6635C50.6605 24.0166 50.6755 24.4351 50.5623 24.9025C50.4058 25.5604 49.7188 26.7408 48.8705 27.7884C47.7843 29.1308 46.6383 30.2341 44.5072 31.9835C40.9302 34.9192 36.9358 37.7268 33.4651 39.7517C30.8955 41.2506 28.1523 42.578 25.7279 43.4951L25.2781 43.7376L22.4413 44.6016C22.0097 44.7299 21.4312 44.8912 21.0543 44.9791C19.2658 45.4003 17.8495 45.4745 16.8848 45.2135C16.2957 45.0537 15.8141 44.7702 15.4354 44.3645C15.0635 43.9662 14.7895 43.4471 14.62 42.8006L16.591 42.4948C16.6601 42.7971 16.7545 43.0238 16.9103 43.1838C17.0601 43.3379 17.2645 43.4233 17.5327 43.4756C17.9662 43.5608 18.7041 43.5267 19.4687 43.3987C20.3861 43.2427 22.2174 42.725 23.4032 42.2792L27.1249 40.7687C31.4825 38.7932 35.9638 35.9746 41.4231 31.7901C42.5632 30.914 45.0101 28.8729 45.6365 28.2745C47.1582 26.8177 48.2251 25.5103 48.6043 24.613C48.6422 24.5244 48.6741 24.4333 48.6997 24.3405L49.7887 22.7714ZM41.0179 14.1494C41.2186 14.2001 41.4072 14.2901 41.5729 14.4142C41.7385 14.5383 41.8779 14.6941 41.9829 14.8725C42.2671 15.3488 42.3293 15.9123 42.1312 16.5993C41.9533 17.2154 41.5591 17.941 40.932 18.8C40.22 19.771 39.2983 20.8094 38.1457 21.9362C36.6949 23.3547 34.5598 25.1156 32.5737 26.5344C28.991 29.0923 24.951 31.3401 21.6972 32.5895L21.2053 32.7799L19.4727 33.3031L17.8991 33.657C17.0932 33.7797 16.2945 33.7849 15.7728 33.6742C15.1366 33.539 14.7419 33.3134 14.4048 32.9164C13.9488 32.3779 13.7562 31.6854 13.8336 30.6949L15.5587 31.2243C15.5677 31.5204 15.5937 31.6686 15.7062 31.8232C15.7698 31.9101 15.7873 31.9234 15.8965 31.9717C16.1036 32.0656 16.579 32.1157 16.9381 32.0942C17.1786 32.0796 17.573 32.0115 17.9642 31.9339L18.0945 31.9078C18.6126 31.8026 19.094 31.6889 19.1651 31.6724L19.1739 31.6699L23.6735 29.8191L23.6835 29.8141C23.7687 29.7702 24.3747 29.4607 24.6435 29.3174C26.9176 28.1015 29.129 26.6772 31.5276 24.8905C32.2389 24.3585 35.0907 21.9695 35.662 21.4212C37.5552 19.6122 38.8172 18.1979 39.6467 16.955C39.817 16.6975 39.9189 16.4305 40.0775 16.2116L41.0179 14.1494Z" fill="#1B1A22"/>
</g>
<defs>
<radialGradient id="paint0_radial_68_1013" cx="0" cy="0" r="1" gradientUnits="userSpaceOnUse" gradientTransform="translate(28.0792 28.3744) scale(13.3234 13.349)">
<stop stop-color="white" stop-opacity="0.904"/>
<stop offset="1" stop-color="#FF6D6D"/>
</radialGradient>
<clipPath id="clip0_68_1013">
<rect width="64" height="64" fill="white"/>
</clipPath>
</defs>
</svg>
