<svg width="64" height="64" viewBox="0 0 64 64" fill="none" xmlns="http://www.w3.org/2000/svg">
<g id="Redux logo" clip-path="url(#clip0_68_990)">
<g id="XMLID_1_">
<path id="XMLID_2_" d="M43.8437 44.0463C46.2112 43.8013 47.9987 41.7663 47.9112 39.3301C47.8237 36.8926 45.79 34.9288 43.3525 34.9288H43.195C40.67 35.0163 38.7237 37.1201 38.7937 39.6451C38.8812 40.8726 39.3725 41.9251 40.0912 42.6613C37.3212 48.1138 33.095 52.1126 26.73 55.4438C22.4162 57.7238 17.9275 58.5476 13.4562 57.9688C9.79123 57.4776 6.93373 55.8476 5.14498 53.1651C2.53248 49.1676 2.28748 44.8538 4.49623 40.5401C6.03873 37.4363 8.49373 35.1576 10.0375 34.0176C9.70373 32.9651 9.23123 31.1601 8.98498 29.8626C-2.81502 38.4188 -1.60502 49.9738 1.98873 55.4451C4.67123 59.5126 10.125 62.0376 16.1562 62.0376C17.7875 62.0376 19.4175 61.8801 21.0487 61.4588C31.465 59.4413 39.3725 53.2513 43.8437 44.0463ZM58.1862 33.9463C51.9962 26.7051 42.8787 22.7063 32.4462 22.7063H31.1487C30.4125 21.2338 28.8687 20.2688 27.1512 20.2688H26.9937C24.4687 20.3563 22.5225 22.4601 22.5925 24.9851C22.68 27.4226 24.7137 29.3863 27.1512 29.3863H27.3087C29.0975 29.2988 30.64 28.1588 31.3062 26.6163H32.7787C38.9687 26.6163 44.825 28.4051 50.12 31.9113C54.1875 34.5938 57.1162 38.1013 58.7462 42.3438C60.1312 45.7626 60.0437 49.1126 58.5887 51.9526C56.3087 56.2663 52.4862 58.6326 47.4375 58.6326C44.1762 58.6326 41.09 57.6501 39.46 56.9138C38.5662 57.7201 36.935 59.0351 35.795 59.8426C39.3012 61.4738 42.8787 62.3676 46.2975 62.3676C54.1175 62.3676 59.9037 58.0538 62.0962 53.7413C64.4462 49.0263 64.2887 40.8726 58.1862 33.9463ZM16.8062 45.4313C16.8937 47.8688 18.9275 49.8326 21.365 49.8326H21.5225C24.0475 49.7451 25.9937 47.6413 25.9237 45.1163C25.8362 42.6788 23.8025 40.7151 21.365 40.7151H21.2075C21.05 40.7151 20.8037 40.7151 20.6287 40.8026C17.2975 35.2613 15.9125 29.2301 16.385 22.7251C16.7187 17.8326 18.3312 13.6076 21.1887 10.1001C23.5562 7.08385 28.115 5.62885 31.2012 5.54135C39.8275 5.38385 43.4925 16.1313 43.7387 20.4451C44.7912 20.6901 46.5962 21.2513 47.8062 21.6726C46.825 8.48635 38.6887 1.63135 30.8687 1.63135C23.54 1.63135 16.7712 6.92635 14.0887 14.7463C10.3362 25.1788 12.7912 35.1913 17.35 43.0813C16.9637 43.6426 16.7187 44.5376 16.8062 45.4313Z" fill="#764ABC"/>
</g>
</g>
<defs>
<clipPath id="clip0_68_990">
<rect width="64" height="64" fill="white"/>
</clipPath>
</defs>
</svg>
