<svg width="64" height="64" viewBox="0 0 64 64" fill="none" xmlns="http://www.w3.org/2000/svg">
<g id="Strapi logo" clip-path="url(#clip0_68_1030)">
<g id="Group">
<path id="Vector" fill-rule="evenodd" clip-rule="evenodd" d="M42.0069 43.5022V22.8162C42.0069 22.4625 41.8663 22.1232 41.6161 21.8731C41.366 21.623 41.0267 21.4825 40.673 21.4825H20.0111V0.129883H62.0019C62.1771 0.129848 62.3506 0.164327 62.5125 0.231349C62.6744 0.298372 62.8215 0.396626 62.9454 0.520499C63.0693 0.644373 63.1676 0.791439 63.2346 0.9533C63.3017 1.11516 63.3362 1.28865 63.3362 1.46385V43.5022H42.0069Z" fill="#8E75FF"/>
<path id="Vector_2" opacity="0.405" fill-rule="evenodd" clip-rule="evenodd" d="M20.0111 0.129883V21.4825H0.290957C0.159072 21.4825 0.030157 21.4433 -0.0795 21.3701C-0.189157 21.2968 -0.274635 21.1927 -0.325134 21.0708C-0.375633 20.949 -0.388888 20.8149 -0.363222 20.6856C-0.337556 20.5562 -0.274123 20.4374 -0.180936 20.344L20.0111 0.129883ZM42.007 63.2432V43.5022H63.3362L43.1457 63.7145C43.0524 63.8078 42.9336 63.8713 42.8042 63.897C42.6749 63.9228 42.5408 63.9096 42.4189 63.8591C42.2971 63.8087 42.1929 63.7232 42.1196 63.6136C42.0462 63.504 42.0071 63.3751 42.007 63.2432ZM20.0111 21.4825H41.3399C41.5167 21.4825 41.6864 21.5528 41.8115 21.6778C41.9366 21.8029 42.0069 21.9725 42.007 22.1494V43.5022H21.3451C21.1699 43.5022 20.9965 43.4677 20.8346 43.4007C20.6728 43.3337 20.5257 43.2354 20.4018 43.1115C20.278 42.9877 20.1797 42.8406 20.1127 42.6788C20.0456 42.5169 20.0111 42.3435 20.0111 42.1683V21.4825Z" fill="#8E75FF"/>
</g>
</g>
<defs>
<clipPath id="clip0_68_1030">
<rect width="64" height="64" fill="white"/>
</clipPath>
</defs>
</svg>
