<svg width="41" height="40" viewBox="0 0 41 40" fill="none" xmlns="http://www.w3.org/2000/svg">
<g id="Group">
<path id="Vector" fill-rule="evenodd" clip-rule="evenodd" d="M20.5055 0.196289C9.49312 0.196289 0.5625 9.12457 0.5625 20.1393C0.5625 28.9503 6.27656 36.426 14.2008 39.0627C15.1973 39.2474 15.5634 38.63 15.5634 38.1032C15.5634 37.6278 15.5447 36.0566 15.5363 34.3907C9.98766 35.5968 8.81719 32.0375 8.81719 32.0375C7.91016 29.7322 6.60281 29.1191 6.60281 29.1191C4.79344 27.8816 6.73875 27.9069 6.73875 27.9069C8.74172 28.0475 9.79641 29.9624 9.79641 29.9624C11.5748 33.0111 14.4619 32.1294 15.5995 31.6199C15.7791 30.3308 16.2956 29.4505 16.8661 28.9527C12.4364 28.4488 7.77984 26.7383 7.77984 19.0968C7.77984 16.9194 8.55891 15.1405 9.83484 13.7436C9.62766 13.2411 8.94516 11.2124 10.028 8.46551C10.028 8.46551 11.7023 7.9302 15.5123 10.5107C17.1038 10.0686 18.81 9.84691 20.5045 9.83941C22.1995 9.84738 23.9067 10.0691 25.5005 10.5107C29.3067 7.93066 30.9792 8.46598 30.9792 8.46598C32.0648 11.2129 31.3823 13.2411 31.1752 13.7441C32.4539 15.14 33.2273 16.9194 33.2273 19.0972C33.2273 26.7566 28.5619 28.4432 24.1209 28.9363C24.8363 29.555 25.4738 30.7691 25.4738 32.63C25.4738 35.2982 25.4513 37.4455 25.4513 38.1022C25.4513 38.6319 25.8103 39.2544 26.8209 39.0585C34.7409 36.4185 40.4475 28.9457 40.4475 20.1374C40.4484 9.12504 31.5197 0.196289 20.5055 0.196289Z" fill="#FAFAFA"/>
<path id="Vector_2" d="M8.11663 28.8291C8.07209 28.9285 7.916 28.9581 7.77444 28.8901C7.62913 28.8245 7.5485 28.6899 7.59538 28.5901C7.63756 28.4888 7.79413 28.4602 7.93897 28.5282C8.08428 28.5938 8.16678 28.7298 8.11709 28.8291H8.11663ZM8.92428 29.731C8.82913 29.8187 8.64303 29.7779 8.51647 29.6382C8.38616 29.499 8.36178 29.3129 8.45834 29.2238C8.55584 29.1357 8.73631 29.177 8.86616 29.3162C8.99741 29.4568 9.02319 29.641 8.92381 29.7306L8.92428 29.731ZM9.71038 30.8785C9.5885 30.9638 9.38834 30.8841 9.26506 30.7065C9.14225 30.5298 9.14225 30.3174 9.26741 30.2316C9.39116 30.1463 9.58803 30.2232 9.71272 30.399C9.83553 30.5795 9.83553 30.7927 9.71038 30.879V30.8785ZM10.7876 31.9885C10.6783 32.109 10.4454 32.0766 10.2752 31.9121C10.1008 31.7513 10.0526 31.5231 10.1618 31.4026C10.2729 31.2821 10.5068 31.3159 10.6783 31.479C10.8518 31.6393 10.9043 31.8681 10.7876 31.9881V31.9885ZM12.2744 32.6326C12.2257 32.7891 12.0016 32.8599 11.7757 32.7938C11.5497 32.7254 11.4026 32.5426 11.4476 32.3851C11.4944 32.2276 11.7204 32.154 11.9477 32.2248C12.1727 32.2923 12.3204 32.4732 12.274 32.6326H12.2744ZM13.9057 32.7521C13.9118 32.9162 13.7201 33.0531 13.4829 33.0559C13.2448 33.0615 13.0516 32.9284 13.0488 32.7662C13.0488 32.6002 13.2363 32.4652 13.4744 32.4615C13.7116 32.4568 13.9057 32.589 13.9057 32.7521ZM15.4244 32.4938C15.4526 32.6541 15.2885 32.8191 15.0527 32.8627C14.8212 32.9059 14.6074 32.8065 14.5774 32.6471C14.5493 32.4831 14.7166 32.319 14.9477 32.2759C15.1835 32.2346 15.3944 32.3312 15.4244 32.4943V32.4938Z" fill="#181616"/>
</g>
</svg>
