<svg width="24" height="24" viewBox="0 0 24 24" fill="none" xmlns="http://www.w3.org/2000/svg">
<g id="github logo">
<g id="Group">
<g id="Group_2">
<path id="Vector" fill-rule="evenodd" clip-rule="evenodd" d="M12.25 2C6.58983 2 2 6.59041 2 12.2531C2 16.7833 4.93694 20.6266 9.00963 21.9824C9.52187 22.0773 9.70998 21.76 9.70998 21.4891C9.70998 21.2447 9.70041 20.4369 9.69607 19.5802C6.84442 20.2004 6.24271 18.3704 6.24271 18.3704C5.77645 17.1853 5.10464 16.8703 5.10464 16.8703C4.17469 16.2339 5.17474 16.2469 5.17474 16.2469C6.20404 16.3193 6.74602 17.3035 6.74602 17.3035C7.66021 18.871 9.14388 18.4178 9.72879 18.1559C9.82076 17.4931 10.0864 17.0409 10.3795 16.7849C8.10292 16.5255 5.70957 15.6464 5.70957 11.7177C5.70957 10.5983 6.10998 9.6836 6.76572 8.96559C6.65928 8.7073 6.30847 7.6645 6.865 6.25219C6.865 6.25219 7.72573 5.97662 9.6845 7.3032C10.5021 7.07595 11.3789 6.96209 12.25 6.95823C13.1211 6.96209 13.9987 7.07595 14.8178 7.3032C16.7743 5.97662 17.6338 6.25219 17.6338 6.25219C18.1917 7.6645 17.8407 8.7073 17.7343 8.96559C18.3915 9.6836 18.7891 10.5982 18.7891 11.7177C18.7891 15.6557 16.3913 16.5229 14.1089 16.7767C14.4765 17.0948 14.8041 17.7189 14.8041 18.6754C14.8041 20.0472 14.7922 21.1514 14.7922 21.4891C14.7922 21.762 14.9767 22.0817 15.4963 21.981C19.5668 20.6237 22.5 16.7818 22.5 12.2531C22.5 6.59041 17.9108 2 12.25 2Z" fill="white"/>
<path id="Vector_2" d="M5.84482 16.6031C5.82248 16.6542 5.74283 16.6695 5.67044 16.6345C5.59661 16.601 5.55511 16.5313 5.57905 16.48C5.601 16.4274 5.68065 16.4127 5.75432 16.448C5.8283 16.4815 5.87044 16.5518 5.84482 16.6031ZM6.3454 17.0546C6.29687 17.1001 6.20198 17.079 6.13757 17.0071C6.07101 16.9354 6.05856 16.8395 6.1078 16.7933C6.15784 16.7479 6.24986 16.7691 6.31659 16.8409C6.38315 16.9134 6.39616 17.0086 6.3454 17.0546ZM6.68882 17.6322C6.62641 17.676 6.52441 17.635 6.46144 17.5435C6.39911 17.4521 6.39911 17.3424 6.4628 17.2984C6.52601 17.2544 6.62641 17.294 6.69026 17.3847C6.75251 17.4777 6.75259 17.5874 6.68882 17.6322ZM7.26953 18.3013C7.21374 18.3634 7.09498 18.3468 7.00799 18.2619C6.91908 18.179 6.89426 18.0613 6.9502 17.9991C7.00663 17.9368 7.12611 17.9543 7.21374 18.0384C7.30209 18.1212 7.32899 18.2398 7.26953 18.3013ZM8.02007 18.5272C7.99557 18.6077 7.88112 18.6443 7.76587 18.6101C7.65078 18.5749 7.57544 18.4805 7.59867 18.3991C7.62261 18.318 7.73754 18.2798 7.85366 18.3165C7.96859 18.3515 8.04401 18.4452 8.02007 18.5272ZM8.87436 18.6229C8.87724 18.7078 8.77947 18.7782 8.65847 18.7797C8.53676 18.7824 8.43836 18.7137 8.43708 18.6303C8.43708 18.5446 8.53261 18.4749 8.65424 18.4729C8.77524 18.4705 8.87436 18.5386 8.87436 18.6229ZM9.71349 18.5904C9.72802 18.6732 9.6439 18.7582 9.52378 18.7808C9.40566 18.8026 9.29632 18.7515 9.28124 18.6695C9.26655 18.5846 9.35227 18.4997 9.47015 18.4776C9.5905 18.4565 9.69817 18.5063 9.71349 18.5904Z" fill="white"/>
</g>
</g>
</g>
</svg>
