<svg width="39" height="39" viewBox="0 0 39 39" fill="none" xmlns="http://www.w3.org/2000/svg">
<g id="logo google">
<path id="Shape" fill-rule="evenodd" clip-rule="evenodd" d="M37.7439 19.527C37.7439 18.1797 37.623 16.8843 37.3984 15.6406H19.5039V22.9902H29.7294C29.2889 25.3652 27.9503 27.3774 25.938 28.7247V33.492H32.0784C35.6712 30.1843 37.7439 25.3133 37.7439 19.527Z" fill="#4285F4"/>
<path id="Shape_2" fill-rule="evenodd" clip-rule="evenodd" d="M19.5025 38.0951C24.6325 38.0951 28.9334 36.3937 32.0771 33.4919L25.9366 28.7246C24.2353 29.8646 22.0589 30.5383 19.5025 30.5383C14.5539 30.5383 10.3653 27.196 8.87116 22.7051H2.52344V27.6278C5.6498 33.8374 12.0753 38.0951 19.5025 38.0951Z" fill="#34A853"/>
<path id="Shape_3" fill-rule="evenodd" clip-rule="evenodd" d="M8.87254 22.7062C8.49254 21.5662 8.27663 20.3485 8.27663 19.0962C8.27663 17.8439 8.49254 16.6262 8.87254 15.4862V10.5635H2.52482C1.238 13.1285 0.503906 16.0303 0.503906 19.0962C0.503906 22.1621 1.238 25.0639 2.52482 27.6289L8.87254 22.7062Z" fill="#FBBC05"/>
<path id="Shape_4" fill-rule="evenodd" clip-rule="evenodd" d="M19.5025 7.65252C22.2921 7.65252 24.7966 8.61116 26.7657 10.4939L32.2153 5.04434C28.9248 1.97843 24.6239 0.0957031 19.5025 0.0957031C12.0753 0.0957031 5.6498 4.35343 2.52344 10.563L8.87117 15.4857C10.3653 10.9948 14.5539 7.65252 19.5025 7.65252Z" fill="#EA4335"/>
</g>
</svg>
