<svg width="25" height="24" viewBox="0 0 25 24" fill="none" xmlns="http://www.w3.org/2000/svg">
<g id="linkedin logo">
<path id="Vector" d="M19.6533 19.0433H16.5961V14.4025C16.5961 13.2958 16.5728 11.8717 15.0029 11.8717C13.409 11.8717 13.1655 13.0758 13.1655 14.3208V19.0433H10.1083V9.5H13.0451V10.8008H13.0847C13.495 10.0508 14.4928 9.25917 15.9836 9.25917C19.0812 9.25917 19.6541 11.2342 19.6541 13.805L19.6533 19.0433ZM6.65542 8.19417C5.67133 8.19417 4.8808 7.4225 4.8808 6.47333C4.8808 5.525 5.67219 4.75417 6.65542 4.75417C7.63607 4.75417 8.4309 5.525 8.4309 6.47333C8.4309 7.4225 7.63521 8.19417 6.65542 8.19417ZM8.18832 19.0433H5.12252V9.5H8.18832V19.0433ZM21.1827 2H3.58789C2.74574 2 2.06445 2.645 2.06445 3.44083V20.5592C2.06445 21.3558 2.74574 22 3.58789 22H21.1802C22.0214 22 22.7096 21.3558 22.7096 20.5592V3.44083C22.7096 2.645 22.0214 2 21.1802 2H21.1827Z" fill="black"/>
</g>
</svg>
