<svg width="24" height="24" viewBox="0 0 24 24" fill="none" xmlns="http://www.w3.org/2000/svg">
<g id="telegram logo">
<path id="Vector" d="M12 23C18.0751 23 23 18.0751 23 12C23 5.92487 18.0751 1 12 1C5.92487 1 1 5.92487 1 12C1 18.0751 5.92487 23 12 23ZM10.1706 14.2374L15.2711 9.63454C15.4949 9.43586 15.2222 9.33898 14.925 9.51919L8.63 13.4906L5.91089 12.642C5.32369 12.4622 5.31947 12.0587 6.04273 11.7686L16.6385 7.68289C17.1224 7.46319 17.5895 7.79913 17.4048 8.53981L15.6003 17.0431C15.4743 17.6473 15.1092 17.7919 14.6033 17.5127L11.8546 15.4819L10.5333 16.7667C10.3798 16.9159 10.2583 17.0417 9.98333 17.0417L10.1706 14.2374Z" fill="black"/>
</g>
</svg>
