<svg width="32" height="32" viewBox="0 0 32 32" fill="none" xmlns="http://www.w3.org/2000/svg">
<g id="logo">
<g id="big circle">
<circle id="Ellipse 23" cx="16.0053" cy="4.45729" r="2.78261" fill="#FAFAFA"/>
<circle id="Ellipse 24" cx="16.005" cy="4.45731" r="1.53043" fill="#0B66F5"/>
<g id="Ellipse 29" style="mix-blend-mode:multiply" opacity="0.8">
<path d="M18.0255 2.50952C19.2553 3.75512 19.0053 5.50512 17.8146 6.56534C16.6421 7.55875 14.7553 7.50512 13.7793 6.10696C14.5754 5.4324 14.6236 5.39154 15.7962 4.39814C16.9688 3.40473 16.8048 3.54394 18.0255 2.50952Z" fill="#03466F"/>
</g>
</g>
<g id="screen">
<path id="comp" d="M3.20508 12.9442C3.20508 10.4854 5.19838 8.49207 7.65725 8.49207H24.3529C26.8118 8.49207 28.8051 10.4854 28.8051 12.9442V22.4051C28.8051 24.864 26.8118 26.8573 24.3529 26.8573H7.65726C5.19839 26.8573 3.20508 24.864 3.20508 22.4051V12.9442Z" fill="url(#paint0_linear_353_9439)"/>
<path id="comp_2" d="M3.175 12.8876C3.16164 10.4516 5.15972 8.49207 7.59574 8.49209C13.0217 8.49212 21.5726 8.49216 21.797 8.49218C22.1265 8.4922 18.5988 11.7956 14.8221 12.8747C10.9265 13.9877 3.27434 13.779 3.20475 13.779C3.1866 13.779 3.17792 13.4193 3.175 12.8876Z" fill="url(#paint1_linear_353_9439)" fill-opacity="0.3"/>
<path id="Vector 8" d="M21.0139 21.5007C23.5891 20.658 27.4975 16.7136 28.8504 15.0627C29.1865 14.6527 29.3095 14.7144 29.3295 15.2442C29.4089 17.3464 29.5658 22.5951 29.2922 25.6051C29.235 26.2339 28.3715 26.7548 27.9674 26.9655C27.8331 27.0355 27.6882 27.0664 27.5367 27.0674C19.882 27.1144 4.94159 27.2196 4.66606 27.2747C4.31823 27.3442 2.5791 24.8399 2.5791 24.6312C2.5791 24.4642 2.66853 16.6312 2.99649 17.3964C4.66607 21.2921 8.42369 22.1349 10.7878 22.4051C13.2226 22.6834 17.1878 22.7529 21.0139 21.5007Z" fill="url(#paint2_linear_353_9439)"/>
</g>
<g id="shadows" style="mix-blend-mode:multiply">
<path id="Vector 7" d="M18.7871 12.5269H22.961C23.5757 12.5269 24.0741 12.0285 24.0741 11.4138V9.18774" stroke="#03466F" stroke-width="2.78261" stroke-linecap="round"/>
<path id="Line 12" d="M2.50879 17.5355H5.70879" stroke="#03466F" stroke-width="2.78261" stroke-linecap="round"/>
<path id="Line 11" d="M14.0566 17.5355H29.5001" stroke="#03466F" stroke-width="2.78261" stroke-linecap="round"/>
<path id="Vector 2" d="M9.46484 19.4834V19.4834C9.46484 19.7908 9.71401 20.0399 10.0214 20.0399H16.6996" stroke="#03466F" stroke-width="2.78261" stroke-linecap="round"/>
<path id="Line 10" d="M6.4043 25.1877H26.9956" stroke="#03466F" stroke-width="2.78261" stroke-linecap="round"/>
<path id="Vector 4" d="M19.2041 20.0399H25.8824C26.4971 20.0399 26.9954 20.5382 26.9954 21.153V21.4312C26.9954 22.0459 26.4971 22.5443 25.8824 22.5443H21.8714" stroke="#03466F" stroke-width="2.78261" stroke-linecap="round"/>
<path id="Vector 5" d="M26.9959 9.18774V13.9182C26.9959 14.5329 26.4976 15.0312 25.8828 15.0312H21.4307" stroke="#03466F" stroke-width="2.78261" stroke-linecap="round"/>
<path id="Vector 6" d="M18.9262 15.0312H8.3523C7.73758 15.0312 7.23926 14.5329 7.23926 13.9182V13.6399C7.23926 13.0252 7.73758 12.5269 8.3523 12.5269H14.448" stroke="#03466F" stroke-width="2.78261" stroke-linecap="round"/>
</g>
<g id="corpus">
<path id="Union" fill-rule="evenodd" clip-rule="evenodd" d="M30.1961 5.98774V24.9095C30.1961 26.7536 28.7011 28.2486 26.857 28.2486H21.1758L21.9874 30.3356H10.0222L10.8338 28.2486H5.15261C3.30846 28.2486 1.81348 26.7536 1.81348 24.9095V5.98774C1.81348 5.5267 2.12493 5.15295 2.50913 5.15295C2.89333 5.15295 3.20478 5.5267 3.20478 5.98774V24.6312C3.20478 25.8606 4.20143 26.8573 5.43087 26.8573H26.5787C27.8081 26.8573 28.8048 25.8606 28.8048 24.6312V5.98774C28.8048 5.5267 29.1162 5.15295 29.5004 5.15295C29.8846 5.15295 30.1961 5.5267 30.1961 5.98774Z" fill="#A9C0CB"/>
<g id="Intersect" style="mix-blend-mode:multiply">
<path fill-rule="evenodd" clip-rule="evenodd" d="M3.20478 6.67715C3.15896 6.68128 3.11255 6.68339 3.06565 6.68339C2.54804 6.68339 2.09045 6.42643 1.81348 6.03312V5.98774C1.81348 5.5267 2.12493 5.15295 2.50913 5.15295C2.54221 5.15295 2.57474 5.15572 2.60659 5.16108C2.61093 5.4109 2.81479 5.61208 3.06565 5.61208C3.08705 5.61208 3.1081 5.61062 3.12871 5.60779C3.17735 5.72176 3.20478 5.8509 3.20478 5.98774V6.67715Z" fill="#82B6CF"/>
</g>
<g id="Intersect_2" style="mix-blend-mode:multiply">
<path fill-rule="evenodd" clip-rule="evenodd" d="M30.196 6.67715C30.1502 6.68128 30.1038 6.68339 30.0569 6.68339C29.5393 6.68339 29.0817 6.42643 28.8047 6.03312V5.98774C28.8047 5.5267 29.1161 5.15295 29.5003 5.15295C29.5334 5.15295 29.566 5.15572 29.5978 5.16108C29.6021 5.4109 29.806 5.61208 30.0569 5.61208C30.0783 5.61208 30.0993 5.61062 30.1199 5.60779C30.1686 5.72176 30.196 5.8509 30.196 5.98774V6.67715Z" fill="#82B6CF"/>
</g>
<path id="Rectangle 12" d="M12.8745 26.8573H19.2049L20.4571 30.3356H11.5527L12.8745 26.8573Z" fill="url(#paint3_linear_353_9439)"/>
<path id="Line 9" d="M4.17871 30.8921H27.8309" stroke="#A9C0CB" stroke-linecap="round"/>
</g>
<g id="lines">
<path id="Vector 7_2" d="M18.0918 11.9704H22.2657C22.8804 11.9704 23.3788 11.4721 23.3788 10.8573V3.06604" stroke="url(#paint4_linear_353_9439)" stroke-opacity="0.7" stroke-width="1.5" stroke-linecap="round"/>
<path id="Line 12_2" d="M1.11719 16.9791L5.01284 16.9791" stroke="#FAFAFA" stroke-linecap="round"/>
<path id="Line 11_2" d="M13.3613 16.9791L30.8918 16.9791" stroke="url(#paint5_linear_353_9439)" stroke-opacity="0.7" stroke-width="1.5" stroke-linecap="round"/>
<path id="Vector 6_2" d="M18.2306 14.4748H8.3523C7.73758 14.4748 7.23926 13.9765 7.23926 13.3618V13.0835C7.23926 12.4688 7.73758 11.9705 8.3523 11.9705H15.2393" stroke="url(#paint6_linear_353_9439)" stroke-opacity="0.7" stroke-width="1.5" stroke-linecap="round"/>
<g id="Line 13" style="mix-blend-mode:multiply">
<path d="M13.0068 11.9861L13.0067 30" stroke="#050505" stroke-width="0.5"/>
</g>
<g id="Vector 3" style="mix-blend-mode:multiply">
<path d="M6.4043 9.44653V21.7586C6.4043 22.1925 6.77804 22.5443 7.23908 22.5443H19.4826" stroke="#03466F" stroke-width="2.78261" stroke-linecap="square"/>
</g>
<path id="Vector 2_2" d="M8.76953 4.7356V17.8139C8.76953 18.7359 9.51702 19.4834 10.4391 19.4834H16.0043" stroke="#FAFAFA" stroke-width="1.5" stroke-linecap="round"/>
<path id="Vector 3_2" d="M5.70898 7.79651V21.153C5.70898 21.6141 6.08273 21.9878 6.54377 21.9878H18.7872" stroke="#FAFAFA" stroke-width="1.5" stroke-linecap="round"/>
<path id="Line 10_2" d="M5.70898 24.6312H26.3003" stroke="#FAFAFA" stroke-width="1.5" stroke-linecap="round"/>
<path id="Vector 4_2" d="M18.5088 19.4834H25.1871C25.8018 19.4834 26.3001 19.9817 26.3001 20.5964V20.8747C26.3001 21.4894 25.8018 21.9877 25.187 21.9877H21.1761" stroke="#FAFAFA" stroke-width="1.5" stroke-linecap="round"/>
<path id="Vector 5_2" d="M26.3006 7.79651V13.3617C26.3006 13.9764 25.8022 14.4748 25.1875 14.4748H20.7354" stroke="url(#paint7_linear_353_9439)" stroke-opacity="0.7" stroke-width="1.5" stroke-linecap="round"/>
<g id="Intersect_3" style="mix-blend-mode:multiply">
<path fill-rule="evenodd" clip-rule="evenodd" d="M6.40498 8.62503C6.35915 8.62916 6.31275 8.63127 6.26585 8.63127C5.74824 8.63127 5.29064 8.37431 5.01367 7.98099V7.93561C5.01367 7.47458 5.32513 7.10083 5.70932 7.10083C5.7424 7.10083 5.77494 7.1036 5.80679 7.10896C5.81112 7.35878 6.01499 7.55996 6.26585 7.55996C6.28724 7.55996 6.30829 7.5585 6.32891 7.55567C6.37754 7.66963 6.40498 7.79878 6.40498 7.93561V8.62503Z" fill="#A9C0CB"/>
</g>
<g id="Intersect_4" style="mix-blend-mode:multiply">
<path fill-rule="evenodd" clip-rule="evenodd" d="M9.46552 5.42508C9.4197 5.4292 9.37329 5.43131 9.32639 5.43131C8.80878 5.43131 8.35119 5.17435 8.07422 4.78104V4.73566C8.07422 4.27462 8.38567 3.90088 8.76987 3.90088C8.80295 3.90088 8.83549 3.90365 8.86733 3.90901C8.87167 4.15883 9.07554 4.36001 9.32639 4.36001C9.34779 4.36001 9.36884 4.35855 9.38946 4.35571C9.43809 4.46968 9.46552 4.59883 9.46552 4.73566V5.42508Z" fill="#C9DFE9"/>
</g>
<g id="Intersect_5" style="mix-blend-mode:multiply">
<path fill-rule="evenodd" clip-rule="evenodd" d="M24.0739 4.03372C24.0281 4.03785 23.9817 4.03996 23.9348 4.03996C23.4172 4.03996 22.9596 3.783 22.6826 3.38968V3.3443C22.6826 2.88327 22.9941 2.50952 23.3783 2.50952C23.4113 2.50952 23.4439 2.51229 23.4757 2.51765C23.4801 2.76747 23.6839 2.96865 23.9348 2.96865C23.9562 2.96865 23.9772 2.96719 23.9979 2.96436C24.0465 3.07832 24.0739 3.20747 24.0739 3.3443V4.03372Z" fill="#56A1B9"/>
</g>
<g id="Intersect_6" style="mix-blend-mode:multiply">
<path fill-rule="evenodd" clip-rule="evenodd" d="M26.9958 8.76419C26.95 8.76832 26.9036 8.77042 26.8567 8.77042C26.3391 8.77042 25.8815 8.51347 25.6045 8.12015V8.07477C25.6045 7.61374 25.9159 7.23999 26.3001 7.23999C26.3332 7.23999 26.3658 7.24276 26.3976 7.24812C26.4019 7.49794 26.6058 7.69912 26.8567 7.69912C26.8781 7.69912 26.8991 7.69766 26.9197 7.69483C26.9684 7.80879 26.9958 7.93794 26.9958 8.07477V8.76419Z" fill="#56A1B9"/>
</g>
<path id="circle6" d="M31.0306 4.59647C31.0306 5.44171 30.3454 6.12691 29.5002 6.12691C28.6549 6.12691 27.9697 5.44171 27.9697 4.59647C27.9697 3.75124 28.6549 3.06604 29.5002 3.06604C30.3454 3.06604 31.0306 3.75124 31.0306 4.59647ZM29.041 4.59647C29.041 4.85005 29.2466 5.05561 29.5002 5.05561C29.7537 5.05561 29.9593 4.85005 29.9593 4.59647C29.9593 4.3429 29.7537 4.13734 29.5002 4.13734C29.2466 4.13734 29.041 4.3429 29.041 4.59647Z" fill="#FAFAFA"/>
<path id="circle5" d="M27.8304 6.54435C27.8304 7.38959 27.1452 8.07479 26.3 8.07479C25.4547 8.07479 24.7695 7.38959 24.7695 6.54435C24.7695 5.69912 25.4547 5.01392 26.3 5.01392C27.1452 5.01392 27.8304 5.69912 27.8304 6.54435ZM25.8408 6.54435C25.8408 6.79792 26.0464 7.00348 26.3 7.00348C26.5535 7.00348 26.7591 6.79792 26.7591 6.54435C26.7591 6.29078 26.5535 6.08522 26.3 6.08522C26.0464 6.08522 25.8408 6.29078 25.8408 6.54435Z" fill="#FAFAFA"/>
<path id="circle4" d="M24.9085 1.81388C24.9085 2.65912 24.2233 3.34432 23.3781 3.34432C22.5329 3.34432 21.8477 2.65912 21.8477 1.81388C21.8477 0.968646 22.5329 0.283447 23.3781 0.283447C24.2233 0.283447 24.9085 0.968646 24.9085 1.81388ZM22.919 1.81388C22.919 2.06745 23.1245 2.27301 23.3781 2.27301C23.6317 2.27301 23.8372 2.06745 23.8372 1.81388C23.8372 1.56031 23.6317 1.35475 23.3781 1.35475C23.1245 1.35475 22.919 1.56031 22.919 1.81388Z" fill="#FAFAFA"/>
<path id="circle3" d="M10.3001 3.20524C10.3001 4.05048 9.61493 4.73567 8.76969 4.73567C7.92446 4.73567 7.23926 4.05048 7.23926 3.20524C7.23926 2.36 7.92446 1.6748 8.76969 1.6748C9.61493 1.6748 10.3001 2.36 10.3001 3.20524ZM8.31056 3.20524C8.31056 3.45881 8.51612 3.66437 8.76969 3.66437C9.02326 3.66437 9.22882 3.45881 9.22882 3.20524C9.22882 2.95167 9.02326 2.74611 8.76969 2.74611C8.51612 2.74611 8.31056 2.95167 8.31056 3.20524Z" fill="#FAFAFA"/>
<path id="circle2" d="M7.23958 6.54435C7.23958 7.38959 6.55438 8.07479 5.70915 8.07479C4.86391 8.07479 4.17871 7.38959 4.17871 6.54435C4.17871 5.69912 4.86391 5.01392 5.70915 5.01392C6.55438 5.01392 7.23958 5.69912 7.23958 6.54435ZM5.25002 6.54435C5.25002 6.79792 5.45557 7.00348 5.70915 7.00348C5.96272 7.00348 6.16828 6.79792 6.16828 6.54435C6.16828 6.29078 5.96272 6.08522 5.70915 6.08522C5.45557 6.08522 5.25002 6.29078 5.25002 6.54435Z" fill="#FAFAFA"/>
<path id="circle1" d="M4.03939 4.59647C4.03939 5.44171 3.35419 6.12691 2.50895 6.12691C1.66371 6.12691 0.978516 5.44171 0.978516 4.59647C0.978516 3.75124 1.66371 3.06604 2.50895 3.06604C3.35419 3.06604 4.03939 3.75124 4.03939 4.59647ZM2.04982 4.59647C2.04982 4.85005 2.25538 5.05561 2.50895 5.05561C2.76252 5.05561 2.96808 4.85005 2.96808 4.59647C2.96808 4.3429 2.76252 4.13734 2.50895 4.13734C2.25538 4.13734 2.04982 4.3429 2.04982 4.59647Z" fill="#FAFAFA"/>
<circle id="button" cx="16.0042" cy="28.3879" r="0.973913" fill="#A8C1CA"/>
</g>
</g>
<defs>
<linearGradient id="paint0_linear_353_9439" x1="16.0051" y1="5.98772" x2="16.0051" y2="26.8573" gradientUnits="userSpaceOnUse">
<stop stop-color="#058DAA"/>
<stop offset="0.504472" stop-color="#004E78"/>
<stop offset="1" stop-color="#003153"/>
</linearGradient>
<linearGradient id="paint1_linear_353_9439" x1="15.2982" y1="9.98163" x2="17.4985" y2="15.763" gradientUnits="userSpaceOnUse">
<stop stop-color="#0B66F5"/>
<stop offset="0.637558" stop-color="#4E80CE" stop-opacity="0.500228"/>
<stop offset="1" stop-color="white" stop-opacity="0"/>
</linearGradient>
<linearGradient id="paint2_linear_353_9439" x1="16.0052" y1="14.7529" x2="16.0129" y2="27.2761" gradientUnits="userSpaceOnUse">
<stop stop-color="#014167"/>
<stop offset="1" stop-color="#00101F"/>
</linearGradient>
<linearGradient id="paint3_linear_353_9439" x1="16.0049" y1="26.8573" x2="16.0049" y2="30.3356" gradientUnits="userSpaceOnUse">
<stop offset="0.191666" stop-color="#011122"/>
<stop offset="0.483333" stop-color="#02456C"/>
<stop offset="0.535416" stop-color="#03466F"/>
<stop offset="0.795833" stop-color="#011122"/>
</linearGradient>
<linearGradient id="paint4_linear_353_9439" x1="21.5298" y1="5.56744" x2="25.6502" y2="7.3956" gradientUnits="userSpaceOnUse">
<stop stop-color="#0B66F5"/>
<stop offset="0.906041" stop-color="#4E80CE" stop-opacity="0.500228"/>
</linearGradient>
<linearGradient id="paint5_linear_353_9439" x1="24.7612" y1="17.26" x2="24.8559" y2="18.501" gradientUnits="userSpaceOnUse">
<stop stop-color="#0B66F5"/>
<stop offset="0.637558" stop-color="#4E80CE" stop-opacity="0.500228"/>
<stop offset="1" stop-color="white" stop-opacity="0"/>
</linearGradient>
<linearGradient id="paint6_linear_353_9439" x1="14.3868" y1="12.674" x2="15.2589" y2="15.5341" gradientUnits="userSpaceOnUse">
<stop stop-color="#0B66F5"/>
<stop offset="0.906041" stop-color="#4E80CE" stop-opacity="0.500228"/>
</linearGradient>
<linearGradient id="paint7_linear_353_9439" x1="24.3544" y1="9.67256" x2="28.0949" y2="12.0019" gradientUnits="userSpaceOnUse">
<stop stop-color="#0B66F5"/>
<stop offset="0.906041" stop-color="#4E80CE" stop-opacity="0.500228"/>
</linearGradient>
</defs>
</svg>
