<svg width="696" height="326" viewBox="0 0 696 326" fill="none" xmlns="http://www.w3.org/2000/svg">
<g style="mix-blend-mode:screen" opacity="0.6" filter="url(#filter0_d_1269_38595)">
<path d="M242.332 215.666L267.838 221.015L293.925 225.843L320.395 230.12L347.052 233.803L373.69 236.871L400.116 239.301L426.122 241.08M449.53 201.369L452.178 203.248L454.337 207.819L455.708 214.483L456.096 222.323L455.445 230.264L453.843 237.209L451.521 242.201L448.798 244.574L423.906 243.491M613.623 195.582L598.833 199.064L582.384 202.039L564.352 204.475L544.83 206.354L523.938 207.644L501.793 208.327L478.547 208.389L454.35 207.826L429.376 206.63L403.802 204.807L377.815 202.365L351.608 199.321L325.383 195.695L299.339 191.512L273.671 186.809L248.566 181.623L224.213 175.993L200.785 169.969M472.576 201.939L475.818 203.824L478.547 208.396L480.381 215.04L481.07 222.856L480.512 230.765L478.785 237.679L476.131 242.645L472.92 245L448.804 244.568M219.619 212.88L218.048 212.466L196.304 206.748L194.401 206.191L174.072 200.248L171.149 196.985L169.559 196.472L149.737 190.046L147.947 189.401L129.727 182.838L127.749 182.043L111.238 175.417L109.084 174.453L94.3633 167.846L92.0537 166.675L79.1977 160.168L76.7442 158.753L65.8098 152.446L54.2994 144.856L52.9913 143.904L49.7054 141.318L44.5229 137.078L36.6866 129.525M36.6866 129.525L33.5195 123.426L32.9124 116.393L34.9591 109.385L39.378 103.36L45.5744 99.1395L52.697 97.2921L60.3768 104.294L69.8531 111.402L81.1005 118.566L94.0942 125.743L108.778 132.882L125.089 139.94L142.939 146.86L162.236 153.592L182.866 160.086L204.691 166.293L208.352 165.359M36.6866 129.525L33.7198 125.855L30.7155 122.123L27.4984 115.986L25.7146 112.861L23.3612 108.734L21.9404 104.344L21.0953 101.713L20.4445 94.762L22.4787 88.011L26.9288 82.381L33.1815 78.636L40.3919 77.2833L47.5772 78.5108L53.7675 82.143L58.1237 87.6791M169.628 191.399L192.611 198.087L216.721 204.4L241.794 210.281L267.65 215.691L294.094 220.582L320.933 224.91L347.959 228.649L374.967 231.761L401.756 234.235L428.118 236.045L453.862 237.191L478.798 237.66L502.744 237.466L504.591 230.584L505.06 222.705L504.084 214.921M584.631 193.729L587.26 193.196L593.212 191.894L601.593 189.959L614.148 186.232L625.033 182.093L634.215 177.571L641.682 172.712L647.421 167.545L651.452 162.109L658.681 162.88L665.235 166.136L670.223 171.434L672.971 178.054L673.102 185.093L668.94 191.18L666.436 197.718L660.421 203.555L655.683 208.59L651.671 211.408L647.866 214.082L641.638 217.389L638.208 219.211L632.093 221.885L628.507 223.357L626.617 224.052L613.454 228.198L598.426 231.98L581.708 235.237L563.382 237.936L543.541 240.046L522.298 241.543L518.198 243.898M518.198 243.898L496.116 244.756L472.939 244.975M518.198 243.898L539.04 242.414L543.541 240.04L547.065 235.111L549.124 228.292L549.43 220.507L547.935 212.836L544.849 206.329L540.605 201.87L535.786 200.06M554.425 198.307L559.695 200.06L564.371 204.444L567.807 210.876L569.528 218.478L569.297 226.206L567.143 232.995L563.376 237.923L558.506 240.322L539.028 242.407M97.2924 67.8895L98.1751 67.6516L104.885 65.8166L110.055 64.3951L110.53 64.2948L122.861 61.627L136.624 59.2598L151.264 57.2996L166.705 55.7465L182.872 54.6005L199.684 53.8615L217.065 53.5233L234.941 53.5797L253.236 54.0306L271.881 54.8697M176.006 20.8642L179.63 20.7578L183.185 23.0498L186.089 27.3835L187.979 33.1889L188.593 39.6769L187.848 45.9519L185.845 51.1623L182.866 54.6005L179.317 55.8029M238.277 26.7009L256.615 27.2395L275.305 28.1538L294.27 29.4376L313.435 31.0847L332.731 33.0824L352.09 35.4309L371.437 38.1112L390.696 41.1172L409.798 44.4426L428.669 48.0686L447.246 51.989L465.447 56.1849L483.204 60.6438L500.447 65.3532L517.103 70.3006L533.094 75.4672L537.075 72.0917L541.087 70.8642L557.023 76.4316L572.126 82.1869L576.294 83.502L587.041 87.986L590.796 89.5516L600.548 94.0356L604.291 95.7578L613.047 100.223L616.715 102.089L624.463 106.517L627.975 108.527L634.709 112.905L637.995 115.04L643.716 119.349L646.708 121.597L651.415 125.824L654.031 128.173L658.569 132.55L660.872 135.124L664.577 139.264L669.04 145.933L671.888 152.521L673.065 158.991L672.514 165.303L670.192 171.415L666.067 177.29L668.79 184.034L668.908 191.161L662.887 196.966L660.39 203.536L652.516 209.053L642.777 214.201L631.185 218.935L617.772 223.219L602.582 227.014L585.67 230.283L567.125 232.988L547.039 235.099L525.527 236.589L502.719 237.441L499.753 242.389L476.113 242.601L451.508 242.151L426.116 241.036L423.9 243.441L398.419 241.706L372.532 239.326L346.432 236.32L320.32 232.713L294.389 228.523L293.85 228.423L268.833 223.789L267.944 223.601L243.847 218.541L242.332 215.623L217.597 209.805L216.451 209.504L193.806 203.561L192.436 203.16L171.13 196.941L169.596 191.368L147.897 184.36L127.624 177.089L125.934 176.413L108.897 169.605L107.082 168.791L91.8158 161.965L89.8944 161.001L76.4689 154.237L74.4659 153.091L62.918 146.459L51.2137 138.694L49.1608 137.078L41.3997 130.991L33.4819 123.394L31.5292 120.977L27.4922 116.243L26.572 114.877L23.3298 108.702L22.6851 101.726L24.7319 94.8935L22.4411 87.9922L21.978 81.354L23.3048 75.0163L27.661 69.6243L30.6279 63.725L36.6553 60.3933L41.1429 54.9574L47.1767 49.8723L49.9557 48.1313L54.6938 45.1566L61.0967 44.5679L67.4683 46.4592L75.918 42.3009L85.6445 38.5183L96.579 35.1177L108.646 32.1117L121.765 29.5003L135.854 27.2896L139.747 31.6107L154.412 29.8134L169.885 28.4106M169.885 28.4106L186.083 27.4023L202.932 26.7886L220.351 26.5631L238.27 26.726M169.885 28.4106L166.642 24.0769L162.643 21.7535L158.737 21.9226M169.885 28.4106L172.031 34.2285L172.789 40.7352L172.05 47.0416L169.922 52.2833L166.692 55.7528L162.812 56.9865M142.22 23.363L146.376 23.125L150.838 25.4797L154.412 29.8071L156.809 35.6375L157.704 42.1693L156.972 48.5133L154.719 53.7988L151.251 57.3121L147.052 58.5834M63.4125 98.5759L60.0952 94.762L58.956 92.9459L56.077 88.3492L53.7424 82.1368L53.0601 76.1561L53.999 70.4321L56.5151 64.9962L60.5459 59.8672L66.0475 55.0639L72.945 50.5987L81.1755 46.4905L90.6705 42.7518L101.348 39.3888L113.14 36.4078L125.965 33.8214L139.754 31.6232M600.56 134.485L595.929 131.711L592.937 127.045L591.898 121.108L592.956 114.702L595.966 108.702L600.523 103.93L605.999 101.031L611.651 100.398L616.715 102.108M103.163 127.202L100.522 125.837L95.4147 123.119L87.6348 118.835L84.9873 117.157L76.6066 111.846L74.1529 110.011L67.3119 104.907L65.115 102.922L59.7572 98.0686L53.9551 91.3615L49.8993 84.8297L47.5647 78.5045L46.92 72.4236L47.934 66.6057L50.5565 61.0822L54.7312 55.8717L60.3956 50.9995L67.4871 46.4717M662.806 189.783L654.939 195.182L645.206 200.217L633.614 204.845L620.195 209.022L604.998 212.71L588.08 215.879L569.522 218.491L549.418 220.514L527.887 221.923L505.054 222.699L481.076 222.831L456.109 222.298L430.334 221.108L403.934 219.261L377.108 216.762L350.056 213.631L322.98 209.886L296.091 205.559L269.597 200.686L243.691 195.301L218.567 189.451L194.407 183.183L171.38 176.551L149.637 169.605L129.32 162.404L110.549 155.001L93.4307 147.449L78.046 139.808L64.4703 132.131L52.7409 124.465L42.8955 116.869L34.9591 109.379L28.9191 102.045L24.7694 94.9123M494.733 201.876L498.538 203.755L501.806 208.302L504.084 214.921M504.084 214.921L526.648 214.195L547.928 212.842L567.801 210.888L586.152 208.358L602.889 205.283L617.929 201.688L631.211 197.618L642.69 193.102L652.335 188.186L660.133 182.907L666.092 177.308M504.084 214.921L480.394 215.015L455.727 214.464L430.265 213.262L404.19 211.414L377.69 208.934L350.97 205.834L324.231 202.133L297.675 197.868L271.499 193.065L245.906 187.767L221.083 182.012L197.205 175.849L174.447 169.33L152.954 162.504L132.862 155.427L114.292 148.156L97.3488 140.741L82.1144 133.239L68.6638 125.699L57.0409 118.178L47.2768 110.719L39.3843 103.367L33.3756 96.1711L29.232 89.1696L26.935 82.3936L26.4343 75.8805L27.7049 69.6618L33.8325 66.1987L40.8989 65.1403L47.9528 66.6245L54.0303 70.4447L58.3115 76.0872L60.2204 82.7818L59.4568 88.725L59.4944 89.6205M30.7218 122.123L27.5296 116.274L26.8725 108.972L28.9254 102.052L33.3756 96.1586L39.6283 92.1005L46.8199 90.4284L53.9739 91.3615L60.1078 94.762H60.1265M641.438 125.981L646.952 132.243L651.002 138.456L653.524 144.587L654.469 150.599L653.793 156.454L651.452 162.122L644.536 163.932L638.859 168.071M634.86 174.327L641.682 172.718L648.798 173.758L655.245 177.315L660.146 182.913L662.825 189.783M24.782 94.9123L29.2383 89.1508L35.5036 85.2493L42.7265 83.74L49.9181 84.8234L56.1083 88.343L59.1125 92.1255L60.452 93.8164M634.872 173.332L635.717 172.718L637.413 171.49L640.518 169.242L647.409 167.533L654.601 168.441L661.122 171.847L666.086 177.296M20 88.0236L22.0155 81.3602L26.4218 75.8555L32.6371 72.2545L39.7911 71.0521L46.9325 72.4111L53.0852 76.1435L57.4164 81.736L59.3567 88.4306M196.323 206.73L193.844 203.586L192.617 198.075L192.817 190.948L194.426 183.176L197.218 175.837L200.81 169.937M627.505 179.081L634.215 177.565L641.206 178.736L647.534 182.437L652.335 188.174L654.951 195.169L655.02 202.465L652.541 209.066L647.86 214.076M67.4934 46.4905L72.97 50.605L76.8067 56.3853L78.4843 63.0486L77.7706 69.6869L74.7788 75.3983L69.9093 79.4189M43.6403 59.504L50.569 61.101L56.5464 65.0088L60.7462 70.6951L62.6114 77.3835L61.8979 84.1721M636.412 163.712L637.557 156.993L641.156 151.068L646.727 146.741L653.518 144.605L660.603 144.95L667.025 147.73L671.913 152.565L674.604 158.796L675.818 165.397L675.287 171.835L675.424 178.793L673.096 185.124L670.599 191.631L666.436 197.749L661.661 202.809L660.165 204.262L655.677 208.621M59.2815 148.883L54.3056 144.881L51.5392 142.627L44.5292 137.103L41.4371 131.047L40.8676 123.996L42.908 116.9L47.2768 110.738L53.3793 106.348L60.3831 104.325L67.3307 104.939L73.2767 108.095M35.2783 58.2202L41.1743 55.0138L47.9653 54.2059L54.7375 55.9093L60.5709 59.8923L64.6706 65.6162L66.4856 72.2983L65.7784 79.0368L63.0933 84.0594L62.6302 84.9173M635.561 164.238L634.134 157.732L635.266 151.062L638.815 145.132L644.304 140.741L650.989 138.493L657.955 138.694L664.264 141.311L669.059 145.989M41.4684 53.0223L47.2018 49.9286L53.8174 49.2335L60.4019 51.0371L66.0726 55.0889L70.0471 60.8442L71.7933 67.52L71.0861 74.2084L68.013 80.0013M631.793 158.057L630.403 151.651L631.523 145.031L635.01 139.088L640.393 134.636L646.933 132.275L653.749 132.331L659.914 134.792L664.59 139.32M70.6542 156.485L66.3417 153.611L59.269 148.895L54.2306 144.768L51.2325 138.763L50.7067 131.686L52.7284 124.503L57.0221 118.196L62.9995 113.631L69.8405 111.427L76.6128 111.871L82.3961 114.896M637.219 169.248L637.407 168.722L638.797 166.474L641.194 162.598L646.864 158.396L653.774 156.479L660.991 157.112L667.538 160.212M607.771 187.61L614.13 186.27L620.739 187.673L626.704 191.643L631.198 197.649L633.614 204.876V212.328L631.198 218.992L626.598 224.083L620.771 226.557M139.76 31.6483L142.401 37.485L143.428 44.0418L142.702 50.4171L140.323 55.7465L136.624 59.3099L132.111 60.625M630.203 157.012L626.61 151.826L625.277 145.52L626.385 138.944L629.796 132.995L635.047 128.473L641.425 126.006M83.8295 164.082L79.9613 161.846L70.6668 156.485L65.8098 152.477L62.9494 146.522L62.4799 139.433L64.4703 132.168L68.6575 125.724L74.4721 120.989L81.1005 118.597L87.6474 118.873L93.2241 121.76M98.732 171.635L95.2271 169.856L83.8356 164.082L79.204 160.193L76.5 154.3L76.0933 147.192L78.0523 139.846L82.1144 133.264L87.7226 128.354L94.0942 125.78L100.366 125.881M613.642 195.607L617.929 201.738L620.207 209.072L620.157 216.599L617.791 223.294L613.441 228.241L607.708 230.784M65.8409 101.4L64.8271 100.855L59.7697 98.1188L52.697 97.3422L46.8136 90.4785L42.7202 83.7964L40.3919 77.3334L39.7973 71.1147L40.8926 65.1716L43.6403 59.5291M63.6503 40.8855L69.8092 40.3908L75.9431 42.3572L81.2006 46.5281L84.8747 52.3334L86.4645 58.9842L85.7509 65.5724L82.8405 71.2087L78.1337 75.129M623.537 150.649L620.07 145.595L618.793 139.389L619.888 132.857L623.212 126.895L628.313 122.311L634.497 119.731L640.925 119.505L646.714 121.66M115.287 179.087L112.114 177.659L98.7195 171.641L94.3507 167.877L91.8283 162.04L91.5029 154.92L93.4244 147.492L97.3363 140.773L102.694 135.688L108.765 132.926L114.718 132.851M73.8838 36.9527L79.7923 36.5393L85.657 38.5747L90.6768 42.7893L94.1692 48.6072L95.6652 55.2392L94.9516 61.7836L92.135 67.3447L87.6035 71.1774M615.55 144.286L612.227 139.37L611.025 133.252L612.108 126.764L615.338 120.789L620.276 116.142L626.247 113.456L632.437 113.092L638.008 115.096M85.388 33.4143L91.0148 33.0762L96.5915 35.1741L101.355 39.4264L104.659 45.2568L106.049 51.87L105.335 58.3705L102.619 63.869L98.2814 67.6202M606.337 137.98L603.176 133.189L602.05 127.164L603.12 120.72L606.243 114.733L611 110.024L616.734 107.231L622.667 106.73L627.993 108.583M133.451 186.377L130.597 185.23L115.306 179.087L111.244 175.448L108.928 169.674L108.69 162.548L110.562 155.039L114.292 148.188L119.368 142.927L125.089 139.977L130.665 139.721M425.79 200.235L427.824 202.089L429.389 206.648L430.271 213.305L430.347 221.152L429.596 229.112L428.131 236.082L426.153 241.105M98.0748 30.2893L103.407 30.0138L108.678 32.1618L113.165 36.4454L116.257 42.2821L117.534 48.8765L116.814 55.3332L114.211 60.769L110.073 64.4514L104.972 65.8855M153.098 193.459L150.557 192.539L133.47 186.377L129.752 182.863L127.674 177.158L127.53 170.025L129.351 162.447L132.881 155.465L137.638 150.035L142.958 146.898L148.122 146.465M588.731 128.235L584.462 125.605L581.658 121.058L580.713 115.203L581.752 108.834L584.644 102.822L588.987 97.9872L594.195 94.9875L599.553 94.2297L604.334 95.8016M111.839 27.5589L116.858 27.3397L121.803 29.5253L126.003 33.8277L128.876 39.6643L130.027 46.24L129.307 52.6591L126.81 58.0386L122.886 61.6583L118.072 63.0298M174.097 200.254L171.869 199.534L153.098 193.441L149.762 190.053L147.947 184.41L147.909 177.277L149.662 169.631L152.966 162.523L157.367 156.93L162.255 153.617L166.955 153.016M575.925 122.085L571.932 119.593L569.328 115.165L568.477 109.391L569.503 103.06L572.27 97.0353L576.394 92.138L581.314 89.0444L586.359 88.1613L590.84 89.6017M126.597 25.2731L131.291 25.104L146.626 23.269L162.787 21.8475L179.699 20.8329L197.274 20.2255L200.41 22.4988L202.97 26.8199L204.597 32.6065L205.066 39.0694L204.315 45.3194L202.444 50.4985L199.715 53.9053L196.504 55.0889M562.149 116.105L558.437 113.737L556.046 109.416L555.301 103.717L556.309 97.4174L558.938 91.3803L562.831 86.4266L567.45 83.2327L572.395 82.1806L576.332 83.5458M515.863 201.281L520.195 203.129L523.969 207.638L526.666 214.207L527.912 221.941L527.53 229.776L525.571 236.627L522.316 241.562L499.803 242.426L496.129 244.775M169.647 191.405L169.722 184.272L171.405 176.557L174.466 169.33L178.478 163.581L182.884 160.093L187.084 159.322M531.98 104.676L528.882 102.553L526.936 98.4381L526.416 92.8833L527.399 86.6395L529.746 80.5711L533.145 75.5048M406.043 71.0333L405.849 67.4449L406.212 62.2345L407.088 56.1035L408.359 49.9036L409.848 44.4802L411.35 40.5787L412.659 38.7249M215.45 20L218.198 22.267L220.401 26.5757L221.759 32.3434L222.078 38.7813L221.315 45.0063L219.575 50.1603L217.102 53.5484L214.236 54.7194M515.738 99.2961L512.959 97.2796L511.244 93.259L510.837 87.7668L511.801 81.5481L514.004 75.4609L517.146 70.3382L520.789 66.875L524.438 65.5411L541.169 70.883L544.636 71.9727M243.885 218.578L242.652 218.29L219.65 212.873L217.641 209.842L216.733 204.4L217.065 197.28L218.592 189.458L221.102 182.012L224.244 175.974L227.592 172.161L230.684 171.077M234.108 20.1816L236.461 22.4361L238.308 26.726L239.391 32.4687L239.56 38.8815L238.79 45.0814L237.187 50.223L234.978 53.6047L232.462 54.7758M498.826 94.1483L496.373 92.2382L494.902 88.3053L494.62 82.8695L495.572 76.6759L497.625 70.5699L500.498 65.3908L503.802 61.8462L507.076 60.4121M401.486 198.451L402.882 200.261L403.84 204.782L404.222 211.42L403.971 219.267L403.12 227.239L401.793 234.235L400.172 239.295L398.476 241.743M253.229 20.7703L255.182 23.006L256.666 27.2708L257.467 32.9885L257.479 39.3763L256.697 45.5574L255.232 50.6864L253.286 54.0619L251.126 55.2392M481.326 89.2573L479.204 87.4474L477.978 83.596L477.821 78.2164L478.754 72.0416L480.656 65.9168L483.26 60.6876L486.215 57.0679L489.106 55.5398M242.389 215.673L241.825 210.293L242.295 203.185L243.728 195.319L245.938 187.786L248.61 181.617L251.383 177.659L253.874 176.432M376.782 196.134L377.527 197.881L377.859 202.352L377.727 208.953L377.145 216.781L376.194 224.753L375.005 231.774L373.746 236.878L372.589 239.376M272.689 21.7535L274.241 23.9642L275.355 28.1976L275.874 33.884L275.73 40.2468L274.942 46.4091L273.615 51.5256L271.931 54.9011M351.865 193.228L351.953 194.906L351.652 199.309L351.001 205.853L350.087 213.65L349.036 221.622L347.997 228.667L347.108 233.815L346.489 236.376M463.288 84.6418L461.51 82.9196L460.54 79.1433L460.509 73.8139L461.429 67.6578L463.175 61.5143L465.503 56.235L468.101 52.5401L470.605 50.9244M292.436 23.1187L293.581 25.2981L294.326 29.5003L294.564 35.1553L294.263 41.493L293.462 47.6428L292.273 52.7593L290.858 56.1473L289.413 57.356M268.896 223.858L267.9 221.04L267.688 215.723L268.295 208.627L269.64 200.724L271.537 193.102L273.721 186.821L275.893 182.732L277.758 181.373M312.389 24.8535L313.128 26.9952L313.497 31.1536L313.447 36.7773L312.984 43.0899L312.17 49.2272L311.119 54.3437L309.973 57.7443L308.891 58.978M444.805 80.3081L443.372 78.6736L442.658 74.9662L442.758 69.6806L443.666 63.5371L445.256 57.3747L447.309 52.0454L449.543 48.2753L451.652 46.5719M332.475 26.9326L332.8 29.0243V33.1388L332.456 38.7249L331.83 45.0188L331.004 51.1498L330.09 56.2788L329.214 59.7044L328.494 60.9757M352.61 29.375L352.528 31.4166L352.147 35.4872L351.521 41.0358L350.738 47.3046L349.9 53.4294L349.124 58.5709L348.516 62.0278L348.16 63.3429M294.445 228.586L293.982 225.862L294.132 220.607L294.883 213.525L296.129 205.59L297.706 197.9L299.39 191.512L300.948 187.303L302.168 185.825M425.94 76.2688L424.864 74.7094L424.407 71.0646L424.638 65.8166L425.527 59.6794L426.954 53.4983L428.725 48.1187L430.597 44.2798L432.306 42.495M320.376 232.763L320.451 230.127L320.971 224.929L321.866 217.864L323.017 209.911L324.263 202.164L325.433 195.695L326.366 191.38L326.935 189.796M387.372 69.1358L387.009 67.7142L387.078 64.1759L387.579 58.9905L388.443 52.8657L389.55 46.6408L390.752 41.1736L391.879 37.2157L392.78 35.2931M367.813 66.0671V64.7019L368.145 61.2074L368.783 56.0471L369.634 49.9223L370.579 43.6786L371.493 38.1676L372.244 34.1533L372.739 32.1681M533.151 75.5236L548.404 80.8905L562.85 86.4391L576.407 92.1443L589.006 97.9935L600.573 103.955L611.038 110.011L620.326 116.136L628.363 122.298L635.091 128.473L640.436 134.629L644.342 140.735L646.758 146.754L647.628 152.653L646.908 158.402L644.561 163.957L640.562 169.286L637.513 172.004L634.885 174.352L630.929 176.92M64.9961 82.7943L68.0567 79.995L74.8164 75.4171L82.8781 71.1962L92.1851 67.3384L102.663 63.8565L114.236 60.7628L126.829 58.0574L140.367 55.7465L154.775 53.8364L169.978 52.3272L185.895 51.2124L202.456 50.4985L219.581 50.1791L237.2 50.248L255.232 50.7052L273.609 51.5443L292.26 52.7593L311.113 54.3437L330.09 56.2851L349.124 58.5772L368.145 61.2137L387.078 64.1821L405.855 67.47L424.407 71.0709L442.658 74.9724L460.54 79.1558L477.984 83.6147L494.914 88.3304L511.263 93.2841L526.954 98.4632L541.913 103.849L556.071 109.423L569.353 115.165L579.918 120.213L581.683 121.058L591.14 126.081L592.999 127.07L601.286 132.024L603.22 133.183L610.287 137.999L612.283 139.364L620.12 145.589L626.66 151.832L631.843 158.057L633.827 161.314M60.1078 88.343L61.9353 84.1846L65.8286 79.0306L71.1362 74.1959L77.8145 69.6994L85.7947 65.5536L95.008 61.7711L105.385 58.358L116.852 55.3269L129.332 52.6779L142.752 50.4171L157.041 48.5509L172.119 47.0792L187.91 46.002L204.34 45.3131L221.333 45.0188L238.815 45.1065L256.716 45.5762L274.954 46.4216L293.469 47.6365L312.177 49.2147L331.016 51.1498L349.912 53.4294L368.796 56.0471L387.591 58.9905L406.231 62.2533L424.645 65.8229L442.765 69.6869L460.515 73.8264L477.827 78.2352L494.633 82.8946L510.856 87.7919L526.429 92.9083L541.275 98.2252L555.32 103.73L568.495 109.398L580.732 115.209L591.954 121.134L602.094 127.158L611.075 133.252L618.836 139.383L625.315 145.526L630.447 151.651L634.171 157.732L636.437 163.731L636.975 167.902M270.129 56.116L289.406 57.3622L308.884 58.9905L328.494 60.9882L348.16 63.3555L367.675 66.0609L367.813 66.0797L386.978 69.0857L387.372 69.1483L406.124 72.4424L406.775 72.5551M571.694 196.077L577.371 197.762L582.434 202.064L586.196 208.408L588.13 215.929L587.967 223.595L585.733 230.352L581.746 235.281L576.551 237.717L561.967 239.877L558.55 240.385M547.496 110.324L544.085 108.082L541.913 103.868L541.275 98.244L542.27 91.9752L544.761 85.9193L548.41 80.9093L552.716 77.6215L557.21 76.4755L560.928 77.6967M587.448 193.284L593.481 194.887L598.889 199.089L602.932 205.333L605.048 212.761L604.948 220.357L602.645 227.083L598.464 232.018L592.981 234.504L580.381 236.965L576.557 237.717M618.517 183.565L625.071 182.143L631.893 183.433L638.064 187.272L642.733 193.146L645.262 200.261L645.3 207.632L642.852 214.264L638.252 219.249L626.773 223.964L620.827 226.563L612.646 229.2L607.764 230.772L597.287 233.414L592.987 234.498M667.6 160.212L665.278 166.174L661.179 171.898L655.283 177.346L647.578 182.481L638.064 187.26L626.76 191.643L613.692 195.595L607.983 191.499L593.494 194.869L577.389 197.743L559.745 200.098L540.655 201.901L520.232 203.135L498.595 203.78L475.887 203.824L452.259 203.254L427.874 202.07L402.907 200.279L377.546 197.887L351.971 194.912L326.378 191.374L300.961 187.297L275.906 182.713L251.402 177.659L227.624 172.179L204.741 166.311L200.848 169.969L178.503 163.6L157.398 156.93L137.663 150.016L119.418 142.915L102.757 135.669L87.7725 128.342L74.5285 120.977L63.0682 113.625L53.4294 106.335L45.6308 99.152L39.6784 92.1192L35.5537 85.2743L33.2379 78.6548L32.6996 72.2921L33.8826 66.2112L36.7428 60.4434L43.6904 59.5103L48.0216 54.1934L53.8738 49.2209L61.178 44.6055L69.8593 40.3657L79.8549 36.5143L91.0773 33.0574L103.451 29.995L116.896 27.3397L131.323 25.0977L135.929 27.3209L150.913 25.511L166.711 24.102L183.247 23.0937L200.441 22.4862L218.217 22.2733L236.493 22.4549L255.201 23.0185L274.26 23.9642L293.594 25.2856L313.134 26.9702L332.806 29.0118L352.535 31.4041L372.251 34.1345L391.885 37.1969L411.357 40.5787L430.603 44.2673L449.543 48.2503L468.107 52.5213L486.221 57.0554L503.815 61.8462L520.814 66.875L537.138 72.123L552.716 77.5777L567.475 83.2202L581.333 89.0256L594.22 94.975L606.062 101.043L616.777 107.206L626.297 113.437L634.553 119.706L641.469 125.987L648.104 125.899L654.093 128.204L659.958 134.767L664.302 141.286L667.056 147.718L668.164 154.031L667.575 160.187L672.558 165.328L675.305 171.816L672.983 178.06L668.833 184.066L662.837 189.79L662.938 196.998L655.045 202.484L645.281 207.6L633.652 212.303L620.189 216.556L604.935 220.319L587.955 223.551L569.328 226.225L549.149 228.304L527.536 229.763L504.622 230.584L480.55 230.746L455.489 230.246L429.614 229.074L403.114 227.233L376.187 224.734L349.036 221.597L321.859 217.839L294.877 213.493L268.289 208.59L242.295 203.166L217.084 197.273L192.842 190.954L169.74 184.266L147.928 177.258L127.549 169.988L108.721 162.51L91.553 154.882L76.1246 147.161L62.5175 139.401L50.7568 131.655L40.8989 123.97L32.95 116.399L26.9037 108.978L22.7603 101.757L20.4882 94.7683L20.0439 88.0486L21.3834 81.6295L21.9466 79.7758L23.38 75.0476L26.4155 69.0293L30.6967 63.7563L35.3097 58.1952L38.7833 55.2768L41.506 52.9972L46.2754 50.01L49.1921 48.1751L54.7563 45.1879L57.9422 43.641L63.6816 40.8542L67.1867 39.5078L73.9277 36.9214L77.6956 35.7628L85.4317 33.383L89.3749 32.4123L98.0999 30.258L102.149 29.4627L111.857 27.5526L115.938 26.9201L126.61 25.2605L130.659 24.7783L142.289 23.388L146.444 23.15L154.587 22.3109L158.8 21.9414L162.705 21.7723L176.068 20.9018L179.692 20.7954L181.439 20.7139L194.013 20.2756L197.305 20.2067L215.469 20L234.139 20.1941L253.248 20.7766L272.714 21.7472L292.454 23.1L312.402 24.8222L332.487 26.9138L332.819 26.9514L352.629 29.3562L372.758 32.1493L392.799 35.2743L412.677 38.7249L432.324 42.4887L451.665 46.5531L470.623 50.9056L489.131 55.5336L507.107 60.4183L524.476 65.5474L527.637 66.5118L541.206 70.8893L544.674 71.979L557.223 76.4379L560.941 77.6591L572.426 82.1744L586.384 88.1488L599.584 94.2172L611.72 100.411L622.717 106.705L632.494 113.067L640.981 119.474L648.11 125.899L653.806 132.306L658.005 138.662L660.647 144.937L661.679 151.093L661.047 157.093L658.719 162.898L654.657 168.472L648.836 173.77L641.25 178.761L631.899 183.402L620.802 187.654L607.983 191.48L601.637 189.971L595.515 191.236L587.304 193.209L584.675 193.741L571.706 196.046L554.469 198.332L535.83 200.079L515.895 201.275L494.789 201.895L472.645 201.926L449.612 201.369L425.846 200.21L401.518 198.463L377.427 196.19L376.807 196.134L352.09 193.259L351.89 193.234L326.954 189.783L302.187 185.813L277.777 181.348L253.899 176.425L230.722 171.09L208.415 165.378L187.128 159.335L166.999 153.01L148.159 146.447L130.722 139.702L114.78 132.819L103.232 127.221L100.591 125.855L97.8496 124.259L93.2742 121.741L88.7928 118.898L82.4524 114.884L78.5718 111.984L73.3268 108.076L70.1034 105.158L65.8973 101.363L63.4877 98.5947L60.4959 93.8414L59.8261 92.0754L59.5382 89.6393V89.6205L60.1078 88.3304L62.6803 84.8986L65.0023 82.7756L67.4683 81.1034L69.9532 79.4189L73.7649 77.4211L78.1838 75.104L81.595 73.6824L87.6662 71.1586L97.3426 67.9271L98.3315 67.5952L103.796 66.1298L104.866 65.8417L105.004 65.8667L109.61 64.871L118.098 63.0361L122.191 62.3347L132.161 60.6187L135.817 60.1303L147.114 58.6147L150.388 58.2828L162.881 57.024L179.379 55.8467L196.529 55.0827L214.255 54.732L232.481 54.7883L251.133 55.2455L270.135 56.0972L271.937 54.9073L290.858 56.1285L309.973 57.7255L329.22 59.6919L348.523 62.0153L367.807 64.6894L387.009 67.7017L406.049 71.0396L406.775 72.5238L425.039 76.0747L425.947 76.25L443.647 80.0388L444.811 80.2893L461.879 84.2974L463.3 84.6292L479.655 88.8251L481.332 89.2573L496.899 93.6097L498.839 94.1546L513.541 98.6323L515.751 99.3024L529.508 103.861L531.993 104.682L544.717 109.285L547.49 110.287L559.094 114.877L562.168 116.092L572.551 120.601L575.95 122.073L585 126.413L588.756 128.216L596.335 132.256L600.516 134.485L606.419 137.999L607.038 138.399L612.89 142.401L615.613 144.261L620.683 148.3L623.587 150.617L627.123 153.999L630.253 156.993L632.093 159.21L633.827 161.295L635.611 164.213L636.988 167.871L637.188 169.418L636.274 171.547L634.916 173.35L633.426 174.678L630.935 176.895L627.537 179.099L622.429 181.604L618.511 183.527L612.371 185.857L607.827 187.579L600.604 189.721L595.509 191.23M406.055 71.0271L424.257 74.5654L424.87 74.6844L442.596 78.4795L443.378 78.6485L460.565 82.6816L461.516 82.9071L478.09 87.1531L479.211 87.4412L496.385 92.2382L511.526 96.8412L512.972 97.2796L527.286 102.02L528.895 102.553L542.314 107.4L544.085 108.039L558.462 113.719L569.872 118.666L571.957 119.568L582.253 124.497L584.493 125.567L593.6 130.421L595.334 131.341L595.997 131.698L600.523 134.466L600.629 134.479L601.349 134.911L606.425 137.98L607.045 138.381M637.326 168.91L638.371 162.804L642.007 156.886L647.64 152.621L654.507 150.592L661.679 151.081L668.183 154.018L673.133 159.009L675.862 165.372L676 172.242L675.468 178.768M59.8387 92.0566L59.4068 90.9231L59.1313 90.1966L58.1737 87.6666L57.4665 81.7422L58.3615 76.0684L60.7963 70.6701L64.7332 65.5787L70.1096 60.8066L76.8631 56.3728L84.9309 52.2896L94.2444 48.5634L104.728 45.2129L116.314 42.2382L128.919 39.6518L142.47 37.4537L156.897 35.6438L172.119 34.2285L188.061 33.2077L204.641 32.5752L221.79 32.3309L239.434 32.4687L257.498 32.9822L275.906 33.8715L294.589 35.124L313.472 36.7397L332.487 38.7062L351.558 41.0108L370.617 43.6536L389.588 46.6157L408.403 49.8973L426.992 53.4795L445.287 57.3497L463.213 61.4955L480.7 65.9043L497.675 70.5636L514.061 75.4547L529.796 80.5649L544.799 85.8755L559 91.3615L572.326 97.0103L584.7 102.797L596.06 108.702L606.325 114.696L615.425 120.758L623.299 126.857L629.877 132.97L635.097 139.057L638.897 145.094L641.225 151.05L642.032 156.886L641.275 162.573L638.922 168.071L637.395 170.094L637.075 170.514L636.299 171.541M59.5633 89.6205V89.608L59.5257 88.7062L60.2893 82.763L62.6803 77.3647L66.5608 72.267L71.8684 67.4825L78.553 63.0361L86.5332 58.9341L95.7465 55.1954L106.124 51.8262L117.59 48.8327L130.077 46.2275L143.503 44.0105L157.798 42.1819L172.882 40.7477L188.68 39.7019L205.116 39.0443L222.116 38.7751L239.61 38.8878L257.517 39.3763L275.768 40.2405L294.288 41.4679L313.009 43.0586L331.861 45L350.77 47.2858L369.666 49.9036L388.474 52.847L407.132 56.1035L425.565 59.6606L443.697 63.512L461.466 67.639L478.798 72.0291L495.616 76.6696L511.851 81.5481L527.436 86.6395L542.295 91.9314L556.359 97.4048L569.553 103.041L581.802 108.815L593.037 114.702L603.189 120.683L612.189 126.732L619.969 132.819L626.46 138.919L631.605 145L635.342 151.031L637.62 156.98L638.39 162.811L637.613 168.491L637.294 169.23L637.213 169.418" stroke="url(#paint0_linear_1269_38595)" stroke-width="0.3" stroke-linecap="round" stroke-linejoin="round" shape-rendering="crispEdges"/>
</g>
<defs>
<filter id="filter0_d_1269_38595" x="-22.1504" y="-30.1499" width="786.301" height="355.3" filterUnits="userSpaceOnUse" color-interpolation-filters="sRGB">
<feFlood flood-opacity="0" result="BackgroundImageFix"/>
<feColorMatrix in="SourceAlpha" type="matrix" values="0 0 0 0 0 0 0 0 0 0 0 0 0 0 0 0 0 0 127 0" result="hardAlpha"/>
<feOffset dx="23" dy="15"/>
<feGaussianBlur stdDeviation="32.5"/>
<feComposite in2="hardAlpha" operator="out"/>
<feColorMatrix type="matrix" values="0 0 0 0 1 0 0 0 0 1 0 0 0 0 1 0 0 0 1 0"/>
<feBlend mode="normal" in2="BackgroundImageFix" result="effect1_dropShadow_1269_38595"/>
<feBlend mode="normal" in="SourceGraphic" in2="effect1_dropShadow_1269_38595" result="shape"/>
</filter>
<linearGradient id="paint0_linear_1269_38595" x1="118.5" y1="35.5" x2="587" y2="211" gradientUnits="userSpaceOnUse">
<stop stop-color="white"/>
<stop offset="1" stop-color="#999999"/>
</linearGradient>
</defs>
</svg>
