<svg width="248" height="242" viewBox="0 0 248 242" fill="none" xmlns="http://www.w3.org/2000/svg">
<g id="Group">
<path id="Vector" d="M43.3083 73.4512L48.6648 60.5753L48.9117 60.1552L50.1473 58.0381L56.3598 47.3928" stroke="#0B66F5" stroke-width="0.3" stroke-linecap="round" stroke-linejoin="round"/>
<path id="Vector_2" d="M45.2819 170.72L40.3168 158.206L39.5512 144.533L39.3305 131.489L39.8717 118.836L42.9166 106.933L48.4641 96.5732L52.6858 94.7006L56.9446 91.7509L60.7587 83.3264L61.294 82.1384L62.097 69.4772L62.5891 54.692L65.6533 41.0373L72.9654 33.1751" stroke="#0B66F5" stroke-width="0.3" stroke-linecap="round" stroke-linejoin="round"/>
<path id="Vector_3" d="M171.653 203.19L158.506 202.607L145.333 199.768L133.91 197.465L124.157 197.663L115.09 200.362L106.189 203.657" stroke="#0B66F5" stroke-width="0.3" stroke-linecap="round" stroke-linejoin="round"/>
<path id="Vector_4" d="M52.597 86.2106L53.6095 73.1786L54.7896 58.2148L54.7923 58.141L58.8347 45.7688L59.373 44.1305L59.9005 43.6467L60.2632 43.3866L62.3922 41.4176L68.634 35.6395L70.4512 34.2259" stroke="#0B66F5" stroke-width="0.3" stroke-linecap="round" stroke-linejoin="round"/>
<path id="Vector_5" d="M140.817 89.5316L151.109 83.1286L164.358 73.7374L179.644 62.8118L192.721 54.3263L202.323 48.6194L206.812 46.6132" stroke="#0B66F5" stroke-width="0.3" stroke-linecap="round" stroke-linejoin="round"/>
<path id="Vector_6" d="M195.33 115.604L195.314 115.901L194.74 127.613L195.835 139.395L194.94 142.404L196.324 152.581L196.736 155.627L195.356 160.641L191.049 166.159L183.01 171.537L171.135 175.809L156.361 177.852L140.623 176.486L126.927 172.681L123.693 161.011L120.559 149.63L117.47 138.309L114.414 126.839L111.872 116.203L109.774 107.094L107.38 97.5301L104.746 87.177L102.529 77.9144L100.507 69.1947L98.1593 59.2816L95.5422 48.1939L88.9024 44.3117L82.1804 41.5691L75.8283 40.1653L70.2256 40.049L65.6548 41.0378L62.0793 42.5968L58.5032 56.0179L58.346 56.6048L58.3361 56.8827L57.6673 71.7209L56.9115 84.6839L56.4508 85.7734L52.6874 94.701L52.199 96.0225L48.6975 105.425L48.8421 117.703L49.3754 129.922L48.3476 142.75L47.5343 156.902L51.2744 170.295L58.3757 181.58L66.8774 190.922L73.6487 191.124L82.0796 199.385L89.8909 199.212L99.8588 195.435L110.294 189.482L120.091 185.15L130.418 185.27L143.319 188.918L158.45 191.895L172.733 191.017L184.458 187.358L192.606 181.968L197 175.854L195.356 160.641L192.749 146.237L194.94 142.404L193.015 129.833L193.002 128.551L192.916 117.245L195.33 115.604ZM195.33 115.604L195.656 114.686L200.487 101.271L200.544 101.11L204.443 99.5821L210.629 81.6257L210.451 63.3354L202.324 48.619L189.872 37.802L174.125 32.7767L156.392 35.978L151.241 41.2561L144.844 48.491L137.67 57.8945L130.989 66.7278L124.145 66.7363L120.142 70.3922L116.065 70.9793L111.311 68.58L105.366 64.1913L101.657 52.6943L98.0024 42.3676L95.7102 38.2359L93.5508 36.905L91.3695 35.7652L89.0196 36.5746L84.4396 34.5105L80.0977 33.2307L76.2123 32.7947L70.2256 40.049L67.8732 52.9849L67.5444 67.0804L66.7842 79.2303L62.9415 88.533L62.1639 100.513L65.992 113.961L68.6808 126.029L68.0617 138.349L67.0626 152.647L69.7321 167.012L75.4074 179.577L82.3978 190.218L89.8909 199.212L97.9825 205.306L106.19 203.657L112.846 207.535L120.198 207.076L124.89 208.655L131.275 209.135L138.06 209.198L138.764 209.184L138.841 209.18L138.948 209.179L139.12 209.173L139.371 209.167L139.696 209.164L140.348 209.709L142.269 209.104L142.644 209.099L143.09 209.086L143.661 209.079L144.448 209.059L145.117 209.043L145.584 209.024L147.453 208.956L150.561 208.837L152.335 208.771L152.423 208.764L152.479 208.766L156.108 208.788L160.561 208.808L166.724 208.836L176.188 207.704L183.643 204.673L188.78 200.387L190.498 197.849L192.333 195.139L195.609 190.301L197.538 184.235L197.653 181.874L198.002 174.457L198.22 169.843L197.805 164.793L197.773 160.797L198.481 154.154L199.764 146.722L199.884 146.184L200.136 145.173L202.576 135.207L202.624 135.009L204.338 123.379L205.85 111.393L205.883 111.12L208.594 97.9475L208.64 97.7217L208.725 97.3058L210.125 90.247L210.695 88.3925L213.029 80.7746L213.044 80.7256L213.347 68.569L213.499 62.4065L206.813 46.6129L194.965 34.6962L188.305 32.3526L178.873 29.0333L174.125 32.7767L166.956 38.9719L157.73 47.9308L147.297 59.5328L138.031 69.8676L130.528 77.017L124.175 80.831L118 82.3732L111.085 80.963L102.529 77.9144L92.6118 75.5112L82.6605 75.1167L73.8996 76.6498L66.7842 79.2303L61.2956 82.1388L56.9115 84.6839L52.5972 86.2107L48.4657 96.5736L43.5863 97.2913L38.1935 97.057L33.0131 96.1479L29.392 95.0008L29.1258 94.1959L37.542 84.69L43.309 73.4507L45.9243 68.1614L48.6655 60.5748L49.6962 59.8941L51.8544 59.1867L54.7924 58.1411L58.346 56.6048L62.5907 54.6925L67.8732 52.9849L74.4071 52.217L81.9726 52.8464L90.1218 55.2348L98.1593 59.2816L105.366 64.1913L108.437 73.4501L114.811 76.7182L120.062 77.0299L124.175 80.831L127.987 87.9087L132.496 93.1873L140.061 95.7658L150.96 91.5648L162.947 86.2638L175.322 93.7145L182.168 107.084L183.365 122.096L185.031 136.258L188.081 150.762L191.049 166.159L192.606 181.968L190.739 196.043L182.641 200.617L171.654 203.19L166.724 208.836L157.901 208.375L156.26 208.393L155.088 208.146L154.565 208.084L150.631 207.61L146.073 207.057L136.674 206.25L128.127 206.378L120.198 207.076L115.091 200.362L110.294 189.482L106.118 177.397L102.245 166.107L98.9028 154.641L96.4201 143.09L94.5583 132.159L92.516 121.833L88.7702 110.537L84.1699 97.0995L82.1876 84.7128L82.6605 75.1167L82.4945 64.6247L81.9726 52.8464L82.1804 41.5691L84.4396 34.5105" stroke="#0B66F5" stroke-width="0.3" stroke-linecap="round" stroke-linejoin="round"/>
<path id="Vector_7" d="M197.944 125.867L198.044 137.371L197.69 148.979L196.699 151.592L196.968 154.795L197.438 160.409L197.616 161.322L197.804 164.793L197.801 164.844" stroke="#0B66F5" stroke-width="0.3" stroke-linecap="round" stroke-linejoin="round"/>
<path id="Vector_8" d="M151.676 209.099L148.819 209.252L146.077 209.397L144.952 209.39L140.348 209.708" stroke="#0B66F5" stroke-width="0.3" stroke-linecap="round" stroke-linejoin="round"/>
<path id="Vector_9" d="M119.351 55.753L129.603 51.6918L129.673 51.6617L132.013 49.6418" stroke="#0B66F5" stroke-width="0.3" stroke-linecap="round" stroke-linejoin="round"/>
<path id="Vector_10" d="M119.372 55.748L129.519 51.8216L129.622 51.6816L132.829 48.9129L140.194 42.508L144.327 38.9011" stroke="#0B66F5" stroke-width="0.3" stroke-linecap="round" stroke-linejoin="round"/>
<path id="Vector_11" d="M150.879 209.25L148.714 209.342L147.366 209.405L144.924 209.453L140.348 209.708" stroke="#0B66F5" stroke-width="0.3" stroke-linecap="round" stroke-linejoin="round"/>
<path id="Vector_12" d="M126.926 172.681L116.447 172.389L106.118 177.397L94.1189 184.999L82.3973 190.218L73.6483 191.124L65.9127 181.015L59.6772 168.937L56.8825 154.88L58.447 140.555L59.7325 128.102L57.8129 116.159L54.976 103.265L56.7479 92.8998L56.9457 91.7516L62.941 88.5332L71.5189 85.982L82.1871 84.713L93.7883 85.1652L104.746 87.1772L113.781 89.0137L121.241 88.8514L127.986 87.9089L135.016 84.548L143.809 77.5584L155.33 66.8948L168.837 54.4015L180.787 44.5441L189.871 37.8022L194.964 34.6964" stroke="#0B66F5" stroke-width="0.3" stroke-linecap="round" stroke-linejoin="round"/>
<path id="Vector_13" d="M157.9 208.375L156.3 208.292L152.509 208.752L152.426 208.758" stroke="#0B66F5" stroke-width="0.3" stroke-linecap="round" stroke-linejoin="round"/>
<path id="Vector_14" d="M106.188 203.657L99.8568 195.435L94.1173 184.999L88.6679 173.968L84.1277 161.677L81.539 148.284L81.0447 135.33L80.13 123.826L76.5478 111.924L72.0453 98.202L71.5174 85.9817L73.8976 76.6497L74.3689 65.2455L74.4051 52.2169L75.8262 40.1651L80.0957 33.2305" stroke="#0B66F5" stroke-width="0.3" stroke-linecap="round" stroke-linejoin="round"/>
<path id="Vector_15" d="M150.561 208.836L149.177 208.954L144.952 209.39L140.348 209.708" stroke="#0B66F5" stroke-width="0.3" stroke-linecap="round" stroke-linejoin="round"/>
<path id="Vector_16" d="M119.405 55.7445L128.723 53.023L130.673 51.3715L130.912 51.1728L134.968 47.7382L142.815 41.0976L144.327 38.9007" stroke="#0B66F5" stroke-width="0.3" stroke-linecap="round" stroke-linejoin="round"/>
<path id="Vector_17" d="M99.7188 41.1991L100.654 42.3638L105.237 48.1058L105.576 48.5318L105.767 48.93L111.348 60.431L116.061 70.9794L120.058 77.03" stroke="#0B66F5" stroke-width="0.3" stroke-linecap="round" stroke-linejoin="round"/>
<path id="Vector_18" d="M199.882 146.184L199.763 146.722L198.976 149.426" stroke="#0B66F5" stroke-width="0.3" stroke-linecap="round" stroke-linejoin="round"/>
<path id="Vector_19" d="M130.988 66.7274L138.03 69.8672L143.809 77.5579L151.109 83.1278L162.946 86.2635L176.642 79.5269L191.113 72.1786L202.544 66.8185L210.451 63.3351L213.499 62.4061" stroke="#0B66F5" stroke-width="0.3" stroke-linecap="round" stroke-linejoin="round"/>
<path id="Vector_20" d="M124.143 66.7358L128.408 60.8304L132.834 54.23L144.843 48.4904L157.729 47.9303L168.836 54.4008L179.644 62.8109L191.112 72.1784L197.648 86.0914L196.498 102.569" stroke="#0B66F5" stroke-width="0.3" stroke-linecap="round" stroke-linejoin="round"/>
<path id="Vector_21" d="M97.7852 39.6903L102.024 45.5526L106.956 57.0422L111.311 68.5796L114.811 76.7178L118 82.3728L121.241 88.8508L124.693 95.087L129.543 99.4993L136.175 106.349L142.639 118.568L146.813 133.457L150.054 148.151L153.352 162.954L156.361 177.852L158.45 191.895L158.507 202.607L156.301 208.292" stroke="#0B66F5" stroke-width="0.3" stroke-linecap="round" stroke-linejoin="round"/>
<path id="Vector_22" d="M147.453 208.955L147.005 209.002L144.96 209.376L140.348 209.708" stroke="#0B66F5" stroke-width="0.3" stroke-linecap="round" stroke-linejoin="round"/>
<path id="Vector_23" d="M156.744 32.2884L162.368 29.192L162.691 29.0156L164.545 29.1028" stroke="#0B66F5" stroke-width="0.3" stroke-linecap="round" stroke-linejoin="round"/>
<path id="Vector_24" d="M196.497 102.57L190.283 104.594L182.165 107.084L171.662 110.185L158.246 114.066L142.636 118.569L127.1 123.091L114.411 126.839L104.918 129.557L94.5562 132.159L81.0446 135.331L68.0595 138.349L58.4454 140.555L48.3455 142.75L39.5507 144.534L33.1048 145.694L30.0625 146.015" stroke="#0B66F5" stroke-width="0.3" stroke-linecap="round" stroke-linejoin="round"/>
<path id="Vector_25" d="M21.0043 125.28L17.9693 119.78L20.6553 107.271L20.6974 106.569L20.7779 106.346L20.7532 105.583L29.1259 94.1956L35.6415 87.0917L37.5421 84.6897" stroke="#0B66F5" stroke-width="0.3" stroke-linecap="round" stroke-linejoin="round"/>
<path id="Vector_26" d="M120.058 77.0296L125.193 73.4297L130.985 66.7275" stroke="#0B66F5" stroke-width="0.3" stroke-linecap="round" stroke-linejoin="round"/>
<path id="Vector_27" d="M124.888 208.655L119.062 207.644L112.844 207.535L106.302 207.098L97.981 205.306L91.3381 204.452L88.9753 203.158L82.078 199.384L76.1572 198.269L67.8867 191.718L66.8758 190.922L62.1324 189.862L59.2054 187.029L53.1482 181.171L50.5293 179.677L47.3447 175.925L43.0659 170.876L42.3047 169.985" stroke="#0B66F5" stroke-width="0.3" stroke-linecap="round" stroke-linejoin="round"/>
<path id="Vector_28" d="M91.3386 204.452L86.4235 202.185L83.9891 201.254L79.2409 199.443L76.1576 198.269L72.2222 196.117L70.8139 195.242L63.6887 190.827L62.1328 189.862" stroke="#0B66F5" stroke-width="0.3" stroke-linecap="round" stroke-linejoin="round"/>
<path id="Vector_29" d="M89.0183 36.5741L93.6103 39.2695L95.5409 48.1934L101.656 52.6938L106.954 57.0421L111.35 60.4304L114.98 62.238L118.07 62.2636L120.847 60.7838L128.408 60.8304L137.669 57.894L147.296 59.5323L155.329 66.8941L164.357 73.7366L176.642 79.5267L186.958 89.8374L190.283 104.594L189.12 119.368L190.068 132.695L192.747 146.237L188.079 150.762L180.031 155.603L168.191 160.006L153.351 162.954L137.501 163.287L123.692 161.011L113.177 161.071L102.243 166.106L88.6687 173.967L75.4061 179.577L65.9119 181.014L58.3744 181.579L53.1484 181.171L45.2822 170.72L42.3049 169.985L36.9365 160.011L36.1243 158.51L33.1057 145.693L30.6121 132.719L31.6288 119.618L37.1891 107.755L42.9168 106.933L48.6962 105.424L54.9751 103.264L62.1626 100.513L72.0461 98.2016L84.1686 97.0989L96.5872 97.2479L107.379 97.5296L116.427 96.5878L124.691 95.0868L132.495 93.1868L140.816 89.5307L150.959 91.5643L163.131 97.5419L171.663 110.184L174.653 125.514L176.906 140.4L180.031 155.603L183.008 171.537L184.456 187.358L182.64 200.617L176.187 207.704" stroke="#0B66F5" stroke-width="0.3" stroke-linecap="round" stroke-linejoin="round"/>
<path id="Vector_30" d="M84.4375 34.5106L89.2311 34.8774L91.3674 35.7653" stroke="#0B66F5" stroke-width="0.3" stroke-linecap="round" stroke-linejoin="round"/>
<path id="Vector_31" d="M131.274 209.135L128.126 206.378L124.156 197.663L120.09 185.15L116.446 172.389L113.178 161.071L110.209 150.201L107.495 139.718L104.919 129.557L102.778 119.639L100.126 109.342L96.5876 97.2485L93.7879 85.165L92.6109 75.5112L91.5098 65.9101L90.1208 55.2348L88.9015 44.3117L89.0187 36.5746" stroke="#0B66F5" stroke-width="0.3" stroke-linecap="round" stroke-linejoin="round"/>
<path id="Vector_32" d="M144.446 209.059L140.346 209.708L138.762 209.183" stroke="#0B66F5" stroke-width="0.3" stroke-linecap="round" stroke-linejoin="round"/>
<path id="Vector_33" d="M20.8464 106.36L24.6816 107.175L30.6668 107.733L37.1877 107.755L43.5836 97.2911L48.1076 86.7162L49.7507 73.7739L51.8517 59.1865L55.3767 50.7104L57.4054 45.8309L59.1687 44.3418L59.3429 44.2166L59.8979 43.6467L62.4241 41.2736L68.6314 35.6395" stroke="#0B66F5" stroke-width="0.3" stroke-linecap="round" stroke-linejoin="round"/>
<path id="Vector_34" d="M120.848 60.7837L123.385 58.5145L125.598 56.3994L127.952 54.6003L130.227 52.5868L130.874 52.0877L139.49 45.4037L140.146 44.8966L140.224 44.8532L145.174 42.134L155.441 36.4961L156.391 35.9774L160.374 31.6414L162.579 29.1804L164.547 29.1026L180.463 28.4492" stroke="#0B66F5" stroke-width="0.3" stroke-linecap="round" stroke-linejoin="round"/>
<path id="Vector_35" d="M143.66 209.079L140.346 209.708L138.84 209.18" stroke="#0B66F5" stroke-width="0.3" stroke-linecap="round" stroke-linejoin="round"/>
<path id="Vector_36" d="M138.059 209.198L136.673 206.25L133.909 197.465L130.417 185.27L126.926 172.681" stroke="#0B66F5" stroke-width="0.3" stroke-linecap="round" stroke-linejoin="round"/>
<path id="Vector_37" d="M143.088 209.086L140.345 209.709L138.945 209.179" stroke="#0B66F5" stroke-width="0.3" stroke-linecap="round" stroke-linejoin="round"/>
<path id="Vector_38" d="M205.881 111.12L203.378 112.324L201.913 124.444L200.921 135.999L198.042 137.371L195.832 139.396L195.924 140.68L196.697 151.593L196.733 155.627L197.522 163.161L197.793 165.767L197.809 165.932L198.219 169.849L196.997 175.854L195.606 190.302L190.736 196.044L188.009 199.364L183.641 204.674" stroke="#0B66F5" stroke-width="0.3" stroke-linecap="round" stroke-linejoin="round"/>
<path id="Vector_39" d="M204.337 123.378L201.915 124.443L197.944 125.867" stroke="#0B66F5" stroke-width="0.3" stroke-linecap="round" stroke-linejoin="round"/>
<path id="Vector_40" d="M95.707 38.2362L97.7818 39.691L99.7192 41.1993L101.491 42.696L104.466 45.8978L107.369 48.5571L109.027 49.9663L109.407 50.3363L113.372 54.2332L115.15 55.0429L116.45 55.554L116.804 55.7454L118.05 56.2654L123.382 58.5155L132.832 54.2309L136.848 48.9087L140.143 44.8976L142.815 41.0982L160.372 31.6423L178.87 29.0336L180.46 28.4502L194.962 34.6966" stroke="#0B66F5" stroke-width="0.3" stroke-linecap="round" stroke-linejoin="round"/>
<path id="Vector_41" d="M57.4057 45.8314L59.3433 44.2171L59.8425 43.7744" stroke="#0B66F5" stroke-width="0.3" stroke-linecap="round" stroke-linejoin="round"/>
<path id="Vector_42" d="M37.5391 84.6903L39.8004 85.5839L43.6822 86.4254L48.1074 86.7167L52.5942 86.211" stroke="#0B66F5" stroke-width="0.3" stroke-linecap="round" stroke-linejoin="round"/>
<path id="Vector_43" d="M142.641 209.098L140.345 209.708L139.117 209.172" stroke="#0B66F5" stroke-width="0.3" stroke-linecap="round" stroke-linejoin="round"/>
<path id="Vector_44" d="M93.5501 36.9045L93.611 39.2696L98.0018 42.3671L102.023 45.5526L105.579 48.5313L108.637 51.0367L108.937 51.5686L114.98 62.238L120.142 70.3917L125.196 73.4295L130.527 77.0166L135.016 84.5473L140.816 89.5307" stroke="#0B66F5" stroke-width="0.3" stroke-linecap="round" stroke-linejoin="round"/>
<path id="Vector_45" d="M101.492 42.6962L103.065 44.1225L103.854 44.9725L104.485 45.5844L106.137 47.1187L108.814 49.4792L109.996 50.516L110.788 51.2081L111.448 51.6601L112.02 51.9901L112.524 52.3829L116.578 55.5652L117.2 55.6231L117.861 55.6817L118.437 55.7352L118.564 55.7463L119.025 55.7911L119.28 55.7789L125.597 56.4005L127.37 54.802L128.725 53.0237L129.52 51.822L129.674 51.6627L132.014 49.6429L132.83 48.9133L140.155 42.5249L144.329 38.9014L156.744 32.2892L162.578 29.1815L162.691 29.0164L180.461 28.4503L188.303 32.3531" stroke="#0B66F5" stroke-width="0.3" stroke-linecap="round" stroke-linejoin="round"/>
<path id="Vector_46" d="M202.622 135.009L200.921 135.998L199.2 147.327L197.688 148.979L197.709 158.364L197.71 158.493L197.614 161.322L197.803 164.792" stroke="#0B66F5" stroke-width="0.3" stroke-linecap="round" stroke-linejoin="round"/>
<path id="Vector_47" d="M103.066 44.1219L104.431 45.4413" stroke="#0B66F5" stroke-width="0.3" stroke-linecap="round" stroke-linejoin="round"/>
<path id="Vector_48" d="M17.9688 119.78L19.6475 120.071L24.5329 120.026L31.6297 119.619L39.8728 118.836L48.8417 117.702L57.813 116.158L65.9915 113.961L76.5495 111.924L88.7698 110.537L100.126 109.341L109.774 107.093L119.281 103.254L129.542 99.4993L140.061 95.7654L150.002 101.678L158.247 114.066L162.239 129.486L165.026 144.645L168.192 160.006L171.135 175.808L172.733 191.016L171.653 203.19" stroke="#0B66F5" stroke-width="0.3" stroke-linecap="round" stroke-linejoin="round"/>
<path id="Vector_49" d="M20.7035 106.331L20.7501 105.583" stroke="#0B66F5" stroke-width="0.3" stroke-linecap="round" stroke-linejoin="round"/>
<path id="Vector_50" d="M23.1541 133.566L24.6972 133.456L30.6106 132.719L39.3291 131.49L49.3725 129.922L59.7301 128.101L68.678 126.029L80.1292 123.826L92.5131 121.833L102.776 119.639L111.87 116.203L122.905 111.398L136.171 106.35L150 101.678L163.129 97.5423L175.319 93.7144L186.957 89.8379L197.647 86.0919L205.26 83.5239L210.626 81.6256L213.041 80.7256" stroke="#0B66F5" stroke-width="0.3" stroke-linecap="round" stroke-linejoin="round"/>
<path id="Vector_51" d="M141.597 209.12L140.344 209.708" stroke="#0B66F5" stroke-width="0.3" stroke-linecap="round" stroke-linejoin="round"/>
<path id="Vector_52" d="M199.882 146.184L199.2 147.327L198.859 149.85L197.755 158.054" stroke="#0B66F5" stroke-width="0.3" stroke-linecap="round" stroke-linejoin="round"/>
<path id="Vector_53" d="M208.725 97.3052L207.715 98.1262L207.654 98.3166L207.394 99.1725L203.381 112.323L199.038 113.953L195.33 115.604" stroke="#0B66F5" stroke-width="0.3" stroke-linecap="round" stroke-linejoin="round"/>
<path id="Vector_54" d="M149.863 209.354L148.651 209.404L148.473 209.407L144.887 209.525L140.348 209.708" stroke="#0B66F5" stroke-width="0.3" stroke-linecap="round" stroke-linejoin="round"/>
<path id="Vector_55" d="M141.252 209.129L140.346 209.709" stroke="#0B66F5" stroke-width="0.3" stroke-linecap="round" stroke-linejoin="round"/>
<path id="Vector_56" d="M140.878 209.133L140.346 209.708" stroke="#0B66F5" stroke-width="0.3" stroke-linecap="round" stroke-linejoin="round"/>
<path id="Vector_57" d="M43.3086 73.4508L43.9925 73.509L46.3548 73.7522L49.753 73.7741L53.6093 73.1788L57.6669 71.7209L62.0981 69.4777L67.544 67.0805L74.3706 65.2457L82.4941 64.6248L91.5103 65.9102L100.506 69.1947L108.437 73.4501L111.084 80.9631L113.781 89.0136L116.428 96.5884L119.282 103.254L122.907 111.398L127.102 123.091L130.807 136.583L134.169 149.909L137.502 163.287L140.623 176.487L143.319 188.918L145.333 199.768L146.073 207.057L145.117 209.043" stroke="#0B66F5" stroke-width="0.3" stroke-linecap="round" stroke-linejoin="round"/>
<path id="Vector_58" d="M140.347 209.708L140.074 209.152" stroke="#0B66F5" stroke-width="0.3" stroke-linecap="round" stroke-linejoin="round"/>
<path id="Vector_59" d="M140.482 209.144L140.347 209.708" stroke="#0B66F5" stroke-width="0.3" stroke-linecap="round" stroke-linejoin="round"/>
<path id="Vector_60" d="M152.47 208.774L152.234 208.899L151.676 209.099L150.879 209.25L149.863 209.354L148.65 209.398L148.646 209.405L144.989 209.318L140.348 209.708" stroke="#0B66F5" stroke-width="0.3" stroke-linecap="round" stroke-linejoin="round"/>
<path id="Vector_61" d="M152.414 208.772L152.234 208.899L148.959 209.125L144.997 209.305L140.348 209.708" stroke="#0B66F5" stroke-width="0.3" stroke-linecap="round" stroke-linejoin="round"/>
<path id="Vector_62" d="M210.125 90.2465L207.715 98.1262L204.443 99.5815L204.391 99.7245L199.038 113.953L197.945 125.867L194.739 127.613L193.015 129.833L190.069 132.695L185.031 136.257L176.907 140.4L165.026 144.645L150.054 148.151L134.17 149.908L120.559 149.629L110.21 150.201L98.9026 154.64L84.1296 161.676L69.7319 167.011L59.6775 168.936L51.2742 170.294L45.2832 170.72" stroke="#0B66F5" stroke-width="0.3" stroke-linecap="round" stroke-linejoin="round"/>
<path id="Vector_63" d="M20.6543 107.272L20.8482 106.36L29.3911 95.0007L35.6405 87.092" stroke="#0B66F5" stroke-width="0.3" stroke-linecap="round" stroke-linejoin="round"/>
<path id="Vector_64" d="M106.137 47.1182L106.77 47.7404L107.37 48.5568L111.218 52.94L113.373 54.2328L113.505 54.349L113.69 54.5131L116.426 56.9081L120.846 60.7843" stroke="#0B66F5" stroke-width="0.3" stroke-linecap="round" stroke-linejoin="round"/>
<path id="Vector_65" d="M108.812 49.4784L111.492 51.5744L112.532 52.3123L113.689 53.0468L117.105 54.9791L118.563 55.7455" stroke="#0B66F5" stroke-width="0.3" stroke-linecap="round" stroke-linejoin="round"/>
<path id="Vector_66" d="M119.027 55.7905L119.282 55.7784L119.375 55.7479L119.408 55.7447L127.372 54.8015L127.953 54.6008L132.185 52.0122L136.852 48.9082L137.619 48.5006L151.241 41.256L166.955 38.9718L180.788 44.5438L192.721 54.3258L202.544 66.8187L205.262 83.5239L200.544 101.109L196.499 102.57L195.833 105.304L192.916 117.245L189.121 119.368L183.365 122.096L174.654 125.514L162.239 129.486L146.813 133.457L130.807 136.583L117.47 138.309L107.496 139.718L96.4201 143.09L81.541 148.284L67.0625 152.647L56.883 154.88L47.5342 156.902L40.3184 158.207L36.1256 158.51L35.3705 157.746L30.0646 146.014L26.755 138.274L24.7 133.456L24.5333 120.026L30.6695 107.733L38.1935 97.0569L43.6851 86.425L46.3552 73.7521L49.3961 61.1427L49.6962 59.894L52.0679 55.4563L52.5118 54.6185L55.516 48.9777L56.3605 47.3923L57.408 45.831L58.8092 44.5625L59.3731 44.1306L62.0792 42.5967L63.0848 41.5915L66.2388 38.4381L70.4514 34.2259L72.9669 33.1755L76.2122 32.7946" stroke="#0B66F5" stroke-width="0.3" stroke-linecap="round" stroke-linejoin="round"/>
<path id="Vector_67" d="M80.0977 33.2303L85.2098 33.9892L85.4024 34.0163L87.2216 34.287L89.2331 34.8769" stroke="#0B66F5" stroke-width="0.3" stroke-linecap="round" stroke-linejoin="round"/>
<path id="Vector_68" d="M112.535 52.3124L113.069 52.6916L117.202 55.6224" stroke="#0B66F5" stroke-width="0.3" stroke-linecap="round" stroke-linejoin="round"/>
<path id="Vector_69" d="M113.691 53.0468L114.983 53.8633L117.863 55.6808" stroke="#0B66F5" stroke-width="0.3" stroke-linecap="round" stroke-linejoin="round"/>
<path id="Vector_70" d="M117.105 54.9794L118.437 55.7347" stroke="#0B66F5" stroke-width="0.3" stroke-linecap="round" stroke-linejoin="round"/>
<path id="Vector_71" d="M26.7522 138.274L24.719 135.612L23.1541 133.566L21.0013 125.28L19.6451 120.072L24.6815 107.175L33.0103 96.1477L39.8005 85.5834L43.9901 73.5087L45.9214 68.1612" stroke="#0B66F5" stroke-width="0.3" stroke-linecap="round" stroke-linejoin="round"/>
<path id="Vector_72" d="M104.387 46.0762L108.636 51.0368L111.219 52.9398L111.564 53.409L111.69 53.5884L111.892 53.8601L118.07 62.2638L124.143 66.736" stroke="#0B66F5" stroke-width="0.3" stroke-linecap="round" stroke-linejoin="round"/>
<path id="Vector_73" d="M36.9344 160.012L36.2399 159.013L35.3672 157.747" stroke="#0B66F5" stroke-width="0.3" stroke-linecap="round" stroke-linejoin="round"/>
<path id="Vector_74" d="M59.2074 187.03L54.6724 183.185L52.2027 181.094L50.5312 179.678" stroke="#0B66F5" stroke-width="0.3" stroke-linecap="round" stroke-linejoin="round"/>
<path id="Vector_75" d="M156.224 208.493L152.492 208.757" stroke="#0B66F5" stroke-width="0.3" stroke-linecap="round" stroke-linejoin="round"/>
<path id="Vector_76" d="M48.665 60.5742L48.9538 60.1429L50.0293 58.5181L52.0675 55.4558" stroke="#0B66F5" stroke-width="0.3" stroke-linecap="round" stroke-linejoin="round"/>
<path id="Vector_77" d="M142.269 209.104L141.93 209.116L140.347 209.708L139.371 209.167" stroke="#0B66F5" stroke-width="0.3" stroke-linecap="round" stroke-linejoin="round"/>
<path id="Vector_78" d="M141.929 209.116L141.599 209.12L141.253 209.128L140.878 209.134L140.482 209.144L140.074 209.152L139.695 209.164" stroke="#0B66F5" stroke-width="0.3" stroke-linecap="round" stroke-linejoin="round"/>
<path id="Vector_79" d="M111.398 51.746L115.152 55.0424L116.323 55.5372" stroke="#0B66F5" stroke-width="0.3" stroke-linecap="round" stroke-linejoin="round"/>
</g>
</svg>
