<svg width="55" height="51" viewBox="0 0 55 51" fill="none" xmlns="http://www.w3.org/2000/svg">
<path id="Torus 9" d="M21.0809 39.9803L17.1438 36.7836M17.1438 36.7836L13.4141 33.358L10.0016 29.8056L7.00147 26.2318L4.49206 22.739L4.14612 22.1539L2.52978 19.4232L2.75038 17.6185L3.78763 15.7773L5.50472 14.1606L7.66023 13.0005L9.94503 12.4619L12.0357 12.6151L13.8518 15.4504L16.1247 18.4461L18.8024 21.5227L21.8171 24.5946L25.086 27.5745L28.5167 30.3765L32.0118 32.9218M17.1438 36.7836L18.0431 35.712L19.3927 34.1286L21.0027 32.2542L22.6401 30.3623L24.0675 28.7259L25.0847 27.5748L25.5586 27.0594M17.1438 36.7836L16.8091 37.205M20.4891 40.1897L24.2545 42.8738L27.9983 45.1838L31.6161 47.0605L32.5958 47.4658L35.0104 48.4638L36.5802 48.8265L39.854 49.7888L42.7172 50.2127L45.1146 50.1104L47.1325 49.6856L48.8588 48.4553L50.7995 47.8461L52.1834 46.7507L53.3019 44.9585L53.6623 42.8298L53.2088 40.6564L52.0022 38.7392L50.2104 37.3441L48.0817 36.6608L47.0587 37.3005L45.6591 37.5946M45.6591 37.5946L44.6415 37.5528L44.2831 37.5385L44.1666 37.5337L44.0942 37.5306L43.9522 37.5251L43.9006 37.5233L43.4413 37.4249L43.4183 37.4202L43.0637 37.3436L42.9002 37.3084L42.6983 37.2651L42.4669 37.2154L42.2852 37.1762L41.8144 37.0755L40.7152 36.6927L39.4416 36.2491L38.0341 35.6183L37.7649 35.4812L35.0081 33.9531L31.8571 31.9272M45.6591 37.5946L47.6241 38.3825M12.7162 10.6153L12.716 10.5765L12.8543 10.1041L13.2845 8.62922L13.0744 6.46069L12.0826 4.45439L10.4408 2.88868M10.4408 2.88868L8.37498 1.98119L6.16949 1.8574L4.13052 2.53261L3.37376 3.18604L2.53603 3.90898L1.60086 5.38723L1.22633 7.34308L1.45252 9.75556L2.30435 12.5852L3.78809 15.7765L5.8906 19.2572L8.57431 22.9378L11.7786 26.7166L15.4196 30.4839L19.3941 34.1261L23.583 37.5327L27.8592 40.6022L32.0955 43.2471L36.1688 45.3997L39.9682 47.0121M10.4408 2.88868L11.5368 2.07048L13.0253 1.65225M10.4408 2.88868L9.78051 4.1069L9.59011 5.71592L9.89597 7.69433L10.7118 10.0091L12.4185 11.0397L12.9223 12.0216L13.0653 12.299L13.6442 13.4265L14.5598 14.7753M38.762 15.1282L41.4047 17.5764L41.7 17.8115M31.5708 23.2469L31.4884 23.1756L29.0759 21.0939L26.4911 19.0817L23.857 17.2423M15.315 16.0164L14.7474 15.1355L13.6452 13.4249L12.0375 12.6119L10.714 10.0072L8.53916 9.63847L6.19591 9.99162L4.01528 11.0221L2.30736 12.5837L1.30891 14.4527L1.15142 16.366L1.84209 18.0596L2.21594 18.8868L2.51621 19.551L3.14313 20.9398M40.8762 34.1217L40.6747 33.7707L40.1885 32.9723L39.3159 31.6031L37.6979 29.4246L35.8533 27.2381L33.816 25.0802L31.6217 22.9856M3.14691 8.24527L4.01609 11.0225L5.50819 14.1583L7.60913 17.5821L10.282 21.207L13.4641 24.9332L17.073 28.6518L21.0062 32.2519L25.1471 35.6243L29.3709 38.6689L33.5514 41.2989L37.5683 43.4469L41.3105 45.065L44.6855 46.1277L47.6183 46.6284L50.0533 46.58M13.4331 12.5781L13.3196 12.3576L13.233 12.2731L13.0285 11.9624L12.4207 11.0378L12.3032 10.7105L11.6553 8.90923L9.89944 7.69203L7.68789 7.13743L5.32604 7.32915L3.14657 8.244M51.1217 34.9296L48.974 34.456L46.7945 34.7175L44.8849 35.6751L44.6138 36.8038L43.9581 37.5242M47.5427 29.3716L45.5228 29.9523L43.7186 31.0644L42.3819 32.5509L41.6959 34.201L41.746 35.7863M41.746 35.7863L42.2899 37.1756M41.746 35.7863L40.8766 34.123L40.675 33.772L39.8779 32.5551L39.3035 31.781L38.1288 30.1976L37.6628 29.6455L36.1364 27.8353L35.7882 27.4664L33.9387 25.5063L33.7174 25.2956L31.5724 23.2478L31.6204 22.986L29.3055 20.9886L26.908 19.1211L24.4665 17.4155L22.0223 15.901L19.6148 14.6057L18.0076 13.8813L17.245 13.5637L16.7438 13.3647M44.1712 37.5331L44.3981 37.4865L44.9364 37.3753L45.9142 36.7785L48.085 36.6606L48.7221 35.7023L48.9744 34.4573L48.85 32.9615L48.3655 31.2534L47.5414 29.3719M50.0498 46.5823L50.5374 44.3226L50.25 41.992L49.2302 39.9168L47.6241 38.3825M47.6241 38.3825L45.7282 38.3147L44.0531 37.5887M47.6241 38.3825L49.1245 38.0518L50.2099 37.3449L50.8731 36.293L51.1182 34.9319M7.49115 0.942411L6.16902 1.8582L5.33843 3.23538L5.04446 5.0666L5.32256 7.33144L6.1929 9.99311L7.65989 12.9993L9.70805 16.2817L12.2994 19.7573L15.3747 23.3314L18.8545 26.9012L22.641 30.3606L26.6219 33.6062L30.6791 36.5428L34.6932 39.0885L38.5489 41.1768L42.1417 42.7614L45.3828 43.8157L48.1999 44.3324L50.5387 44.3222L52.3655 43.8097M13.354 12.3688L15.081 12.7814M15.081 12.7814L16.7428 13.3684L17.2439 13.5674L18.6123 14.21L21.2163 15.61L23.8569 17.2444L24.4659 17.4184L25.4315 16.9544L26.6249 15.904L27.8808 14.4085L29.0193 12.6785L29.8776 10.9611L30.3365 9.49957L30.3368 8.49547L27.4748 6.65046L24.6618 5.04466L21.9446 3.71052L19.3719 2.67724L16.9945 1.97415L15.5366 1.05275M15.081 12.7814L16.6375 12.5843L18.153 11.6521L19.4156 10.1057L20.2462 8.1569L20.5267 6.07896L20.2186 4.16389L19.3694 2.67793L18.1037 1.82016M13.1791 11.8803L14.7085 11.0282L15.9864 9.44975L16.6942 7.4344L16.731 5.26095L16.0903 3.23129L14.8635 1.62642L13.2239 0.665807L11.2237 0.679912L9.25525 0.486306M24.2528 42.875L25.1093 42.855L26.3679 42.0661L27.8582 40.6038L29.3679 38.6704L30.6786 36.5436L31.601 34.5327L32.0097 32.9216M23.1339 15.5267L24.4074 14.5182L25.6617 13.0122L26.7186 11.2189L27.4269 9.39439L27.6887 7.79756L27.4737 6.64872L26.819 6.09746M39.9668 47.0145L41.3079 45.0678L42.1412 42.7622L42.3489 40.4269L41.9075 38.3928L40.8886 36.9381L39.4432 36.25M54.6701 39.6616L54.1766 37.7288L53.9401 35.7829L52.735 34.2896L50.956 33.3023L48.847 32.963L46.6997 33.3194L44.8136 34.3219L43.4479 35.8271L42.9022 37.3085M23.1334 15.5275L20.8754 14.3067L18.6959 13.3185L16.6362 12.5847L14.7364 12.125L13.2089 11.974M9.58735 1.11398L8.37337 1.98026L7.62587 3.28055L7.38579 5.00727L7.68327 7.13799L8.53581 9.63868L9.94435 12.4593L11.8923 15.5354L14.3439 18.7914L17.2431 22.1379L20.5143 25.4807L24.0673 28.7225L27.7991 31.7683L31.6011 34.5306L35.3624 36.9314L38.9768 38.9106L42.3487 40.4236L45.3932 41.444L48.0441 41.9638L50.2501 41.9899L51.9778 41.543L53.2085 40.6551L53.9389 39.3676M50.6693 28.6225L49.728 27.6646L48.2383 27.219L46.4014 27.3543L44.4717 28.0581L42.7225 29.2332L41.4004 30.7131L40.6873 32.2872L40.673 33.7363M17.2862 13.5573L18.6978 13.3153L20.1333 12.367L21.3917 10.8354L22.2937 8.93221L22.7114 6.9259L22.5869 5.10066L21.9435 3.70878L20.8775 2.93514M13.3161 12.2651L14.7374 12.1234L16.3304 11.1983L17.5998 9.6364L18.3655 7.64914L18.5177 5.51429L18.0365 3.53045M15.6193 16.4203L15.3438 16.0298L13.8506 15.4487L11.8927 15.5367L9.70724 16.2813L7.60532 17.5832L5.88979 19.2567L4.80353 21.06L4.49172 22.7377L4.98256 24.0587M18.0373 3.53092L16.087 3.22943L14.4158 3.27522L13.0673 3.68175L12.0834 4.45485L11.5005 5.59293L12.5532 7.53105L12.4281 8.92268M27.9971 45.1842L29.1088 45.3255L30.54 44.6546L32.0941 43.2496L33.5487 41.3016L34.6923 39.0901L35.3621 36.9356L35.4685 35.1425L35.0092 33.9549M53.2542 33.584L52.1125 32.2618L50.4041 31.4466L48.3612 31.2552L46.2679 31.7193L44.4175 32.7736L43.0669 34.2692L42.3984 35.9951L42.4667 37.2174M17.3924 18.7529L16.1229 18.4473L14.3441 18.7948L12.298 19.7597L10.2768 21.2105L8.57291 22.9402L7.42935 24.6975L7.00101 26.2326L7.33258 27.3379M12.8015 9.65384L13.2847 8.63257L14.1143 7.92L13.9666 5.72723L13.0664 3.68336L11.5358 2.07209L9.58723 1.11605M43.9014 37.5237L43.94 37.5406L44.0744 37.5612L44.609 36.8064L46.5303 35.8845L46.7905 34.7206L46.6992 33.3202L46.2691 31.7189L45.5185 29.9541L44.4709 28.0631L43.1534 26.0829L41.5946 24.0495L39.8248 21.9998L37.8779 19.9683L35.788 17.9889M35.788 17.9889L33.5904 16.0937L31.3215 14.3145L29.0179 12.681L26.7188 11.2223L24.4642 9.96576L22.293 8.93718L20.2468 8.15945L18.3661 7.65376L16.6915 7.43716L15.2623 7.52367L14.1154 7.92174L13.495 9.96275L12.7953 10.8321M35.788 17.9889L37.0926 16.6325L38.1304 15.6354L38.7604 15.1327M35.788 17.9889L34.4015 19.5134L33.1324 20.9872L32.1607 22.2011L31.6177 22.9887M48.8404 25.9693L48.0297 25.1987L46.6827 24.9453L44.9785 25.253L43.1541 26.0854L41.4676 27.3269L40.1584 28.8012L39.4082 30.298L39.313 31.61L39.8746 32.5607M18.6108 14.2145L19.6127 14.6131L20.8764 14.3105L22.2313 13.3361L23.4872 11.8181L24.4654 9.96749L25.0259 8.04693L25.0923 6.32866L24.6611 5.04963L23.8001 4.3792M12.7259 10.6413L13.4949 9.96483L14.6029 9.55943L15.2621 7.52575L15.198 5.33168L14.4167 3.28112L13.0262 1.65815M12.7194 10.6247L12.7259 10.5574L12.8033 9.65812L12.7899 9.54167L12.7391 9.10652L12.5553 7.53661L13.0769 6.46752L13.9692 5.73197L15.1996 5.33261L16.7303 5.26592L18.521 5.52159L20.5293 6.08371L22.7126 6.93307L25.0267 8.0474L27.4299 9.40041L29.8782 10.9657L32.3317 12.7138L34.7501 14.6138L37.0945 16.6347L39.3255 18.744L41.4072 20.907L43.3037 23.0891L44.9793 25.2534L46.4022 27.3622L47.5394 29.3772L49.4906 29.409L51.1015 30.0431L52.1547 31.1851L52.801 32.5926L53.2577 33.5871L53.9432 35.7869L54.4152 37.5781L54.6732 39.6656L54.4297 41.4355L54.2796 42.3714L54.1029 43.4781L53.3049 44.9645L51.9545 46.0168L50.0533 46.5875L48.8609 48.4609L46.3815 48.5416L43.3992 48.0651L39.9699 47.0184L38.3146 48.3307L36.5824 48.8321L32.9716 47.3362L29.1135 45.3304L25.1132 42.8594L21.0856 39.9851L20.4926 40.1949L16.8151 37.2095L13.3325 34.0095L13.15 33.8191L10.1448 30.688L9.81129 30.2899L7.3395 27.3408L6.8789 26.6992L4.98888 24.0645L4.42873 23.1168L3.14644 20.9471L2.53449 19.4281L2.18052 18.6447L1.15346 16.3736L0.850716 15.3227L0.367874 13.649L0.48976 11.6484L0.283509 9.24424L1.23266 7.34889L2.89767 5.88946L5.05079 5.07241L7.39326 5.0148L9.59597 5.72253L11.3551 7.09232L11.6573 8.91895L12.5118 10.2841L12.7169 10.6028L12.7228 10.6224L12.7243 10.6254L12.7304 10.6429L12.8001 10.8349L12.9649 11.2906L12.9823 11.3405L13.0413 11.5026L13.1812 11.888L13.2151 11.9819L13.3213 12.2746L13.3215 12.3673L13.435 12.5878L13.9487 13.5862L14.5647 14.7835L15.3503 16.039L15.6259 16.4295L17.3996 18.7591L19.8436 21.5608L22.5892 24.3559L25.564 27.0668L28.6853 29.617L31.8649 31.936L32.0163 32.9308L35.476 35.15L38.8036 36.9873L41.9137 38.4007L44.7279 39.3657L47.1851 39.8727L49.2368 39.926L50.8505 39.5424L52.0078 38.7499L52.7038 37.5835L52.9435 36.0847L52.7407 34.2983L52.1187 32.2697L51.1054 30.0475L49.7326 27.677L48.0352 25.2041L46.0513 22.6723L43.819 20.1242L41.4098 17.588L38.9114 15.1897L38.7671 15.1398L36.0293 12.7798L35.9821 12.6643L34.3015 11.3409L33.2144 10.5239L32.9602 10.2845L31.6885 9.37381L30.3416 8.40892L29.8929 8.08745L29.2191 7.6532L26.825 6.1095L23.8056 4.38454L20.8835 2.94718L18.111 1.82978L15.5414 1.06305L13.2284 0.674842L11.4037 0.483542L10.8516 0.486572L9.25891 0.494874L7.49768 0.951567L6.54107 1.26035L5.5406 1.58365L4.13659 2.54257L3.23927 3.98133L2.89789 5.89281L3.14962 8.25545L1.45906 9.76471L0.49078 11.6522L1.31243 14.4634L2.75739 17.6269L4.81087 21.0696L7.43729 24.7042L10.5776 28.43L14.1492 32.1388L18.0506 35.7195L22.1678 39.0642L26.3753 42.0736L30.5483 44.6626L34.5658 46.7648L38.319 48.3343L41.7129 49.3454L44.6714 49.7942L47.1387 49.6935L49.078 49.0738L50.806 47.8552L51.9588 46.0204L52.3725 43.8181L53.6696 42.8394L54.4348 41.4396L53.9466 39.3785L54.1849 37.7368L52.946 36.0841L51.1273 34.9404L50.9643 33.3103L50.4133 31.453L49.4975 29.4119L48.246 27.2299L46.6913 24.9491L44.8668 22.6106L42.8085 20.2544L40.5532 17.919L38.1397 15.6418L35.6065 13.4582L32.9943 11.4022L30.3444 9.50838L27.6985 7.80858L25.1004 6.33332L22.5954 5.11202L20.2285 4.17282L18.0462 3.54147L17.0019 1.98378L14.87 1.63557L13.0355 1.66246L11.2311 0.689533L9.59839 1.12465L7.50137 0.952625M19.8481 21.5624L18.8123 21.5316L17.2549 22.1491L15.3862 23.3413L13.4718 24.9441L11.7897 26.7273L10.5821 28.4315L10.0136 29.8147L10.1499 30.692M46.7086 23.2488L46.0456 22.6637L44.8581 22.6034L43.3027 23.0853L41.5951 24.0487L39.977 25.3598L38.6801 26.8315L37.8847 28.2538M37.8847 28.2538L37.6955 29.4287L38.1262 30.2004M37.8847 28.2538L39.4084 30.2959L40.687 32.2914L41.6924 34.2033L42.3997 35.9948L42.7008 37.2664M37.8847 28.2538L36.1468 26.201L34.228 24.1729L32.161 22.2023L29.9817 20.322L27.7257 18.5631L25.4306 16.956L23.1346 15.5292L22.0203 15.9063L21.2149 15.6124M21.0805 39.9811L22.1598 39.0575L23.5812 37.536L25.144 35.6279L26.6213 33.6091L27.7997 31.7729L28.5153 30.3789L28.679 29.6112M44.3145 20.519L43.8131 20.1175L42.8001 20.2485L41.4065 20.9045L39.8256 22.0003L38.2817 23.3821L36.9953 24.8524L36.1476 26.2014L35.8505 27.243L36.1341 27.8394M22.585 24.3502L21.8169 24.5967L20.5161 25.485L18.856 26.9042L17.0707 28.6558L15.4199 30.4873L14.142 32.1326L13.4144 33.3593L13.3269 34.0062M38.9052 15.1818L37.0267 13.5624L36.0384 12.7474L33.2004 10.5481L30.3359 8.49709L29.8872 8.07876M52.1521 31.1803L51.6042 30.2375L50.6674 28.6257L50.0826 27.7747L48.8394 25.9655L48.2704 25.2398L46.7083 23.2475L46.2029 22.6705L44.3143 20.5156L43.913 20.1009L42.7287 18.8769L41.6983 17.8127L41.3709 17.5903L40.5446 17.9097L39.3246 18.7381L37.8785 19.9655L36.4116 21.4187L35.1343 22.89L34.2278 24.1695L33.8122 25.0812L33.9354 25.5065M26.4893 19.0828L26.9058 19.123L27.7251 18.5606L28.8409 17.4622L30.0991 15.9756L31.32 14.3115L32.3287 12.7077L32.9836 11.3928L33.2067 10.513L32.9525 10.2736M43.4179 37.419L43.4983 37.1941L43.4455 35.8257L43.0655 34.2662L42.3757 32.5505L41.3974 30.7146L40.1555 28.7952L38.6765 26.8284L36.9914 24.848L35.1314 22.8894L33.1296 20.9845L31.0205 19.1651L28.8388 17.4621L26.6208 15.9038L24.404 14.5184L22.2274 13.3317L20.129 12.3689L18.1488 11.6518L16.3266 11.1993L14.701 11.0282L13.3105 11.15L12.9723 11.3336M43.4372 37.4247L43.4945 37.1951L44.8752 35.677L44.8074 34.3215L44.4125 32.7728L43.708 31.0659L42.716 29.237L41.4604 27.3227L39.9699 25.3589L38.2743 23.38L36.4052 21.4204L34.3957 19.5122L32.2798 17.6878L30.094 15.977L27.8736 14.4098L25.6566 13.0136L23.4816 11.8148L21.3865 10.8388L19.411 10.1062L17.5956 9.63824L15.9785 9.45052L14.5978 9.55537L13.3108 11.1513L12.9552 11.285M29.0694 21.0977L29.2982 20.9919L29.9767 20.3213L31.0191 19.1675L32.2819 17.6879L33.5859 16.0922L34.7441 14.6093L35.5933 13.4495L36.0339 12.7459L35.9706 12.6544M35.0087 48.4649L36.4115 48.8766L37.3868 49.163L38.0956 49.371L39.853 49.7904L41.7054 49.3379L43.3961 48.0612L44.6836 46.1309L45.3823 43.8165L45.3942 41.4478L44.7225 39.3583L43.4691 37.8349L42.3989 37.4635L40.8881 36.9389L39.1984 36.1657L38.0454 35.6378M53.9387 39.3718L52.6984 37.5761L50.8743 36.2947L48.7195 35.7051L46.5319 35.8855L45.9128 36.7809L44.6101 37.3893L44.3967 37.4889M52.3666 43.8115L51.9801 41.5464L50.8464 39.5346L49.1269 38.0532L47.0612 37.3019L45.5137 37.3567L45.101 37.3714L44.9354 37.377M12.716 10.5915L12.6217 10.0398L12.431 8.92326L11.3522 7.08629L11.5034 5.59352L9.7834 4.10749L7.6299 3.28288L5.34132 3.23597L3.23562 3.97276L1.60374 5.38782L0.665118 7.2817L0.280878 9.23948L0.169983 11.3066L0.238787 12.1278L0.366047 13.6447M31.6143 47.0617L32.9669 47.3313L34.5575 46.7567L36.1666 45.4017L37.5635 43.4495L38.5463 41.1775L38.9749 38.9138L38.7953 36.9792L38.0336 35.6192L37.7644 35.4821M42.7147 50.2134L44.6623 49.7857L46.376 48.5363L47.6136 46.631L48.1966 44.3327L48.0427 41.9662L47.1765 39.8635L45.7266 38.3138L43.8243 37.9087L43.6377 37.8688L43.4663 37.8322L42.3394 37.3151L41.8133 37.0737" stroke="#FAFAFA" stroke-width="0.1" stroke-linecap="round" stroke-linejoin="round"/>
</svg>
